<svg xmlns="http://www.w3.org/2000/svg" width="36" height="38.602" viewBox="0 0 36 38.602">
  <path id="Icon_ionic-md-flower" data-name="Icon ionic-md-flower" d="M36.478,22.676A6.86,6.86,0,0,0,40.5,16.468a6.967,6.967,0,0,0-7.031-6.895,7.111,7.111,0,0,0-3.994,1.216l.056-.52a7.033,7.033,0,0,0-14.062,0l.056.52a7.044,7.044,0,0,0-3.994-1.216A6.967,6.967,0,0,0,4.5,16.468a6.87,6.87,0,0,0,4.022,6.208A6.86,6.86,0,0,0,4.5,28.884a6.967,6.967,0,0,0,7.031,6.895,7.111,7.111,0,0,0,3.994-1.216l-.056.52a7.033,7.033,0,0,0,14.063,0l-.056-.52a7.044,7.044,0,0,0,3.994,1.216A6.967,6.967,0,0,0,40.5,28.884,6.86,6.86,0,0,0,36.478,22.676ZM22.5,29.57a6.9,6.9,0,1,1,7.031-6.895A6.967,6.967,0,0,1,22.5,29.57Z" transform="translate(-4.5 -3.375)" fill="#233611"/>
</svg>
