<svg xmlns="http://www.w3.org/2000/svg" width="31.5" height="24.75" viewBox="0 0 31.5 24.75">
  <g id="Icon_ionic-ios-bed" data-name="Icon ionic-ios-bed" transform="translate(-2.25 -5.625)">
    <path id="Trazado_36" data-name="Trazado 36" d="M32.217,14.625h-.028a1.536,1.536,0,0,0-1.533,1.533.156.156,0,0,1-.155.155H5.5a.156.156,0,0,1-.155-.155,1.536,1.536,0,0,0-1.533-1.533H3.783A1.536,1.536,0,0,0,2.25,16.158V28.842a1.536,1.536,0,0,0,1.533,1.533h.028a1.536,1.536,0,0,0,1.533-1.533v-.436a.282.282,0,0,1,.281-.281h24.75a.282.282,0,0,1,.281.281v.436a1.536,1.536,0,0,0,1.533,1.533h.028a1.536,1.536,0,0,0,1.533-1.533V16.158A1.536,1.536,0,0,0,32.217,14.625Z" fill="#233611"/>
    <path id="Trazado_37" data-name="Trazado 37" d="M5.906,15.047H7.488a.282.282,0,0,0,.281-.281v-.914a1.128,1.128,0,0,1,1.125-1.125H15.75a1.128,1.128,0,0,1,1.125,1.125v.914a.282.282,0,0,0,.281.281h1.688a.282.282,0,0,0,.281-.281v-.914a1.128,1.128,0,0,1,1.125-1.125h6.855a1.128,1.128,0,0,1,1.125,1.125v.914a.282.282,0,0,0,.281.281h1.582a.564.564,0,0,0,.563-.562V7.875a2.257,2.257,0,0,0-2.25-2.25H7.594a2.257,2.257,0,0,0-2.25,2.25v6.609A.564.564,0,0,0,5.906,15.047Z" fill="#233611"/>
  </g>
</svg>
