<svg xmlns="http://www.w3.org/2000/svg" width="36" height="36" viewBox="0 0 36 36">
  <path id="Icon_weather-snowflake-cold" data-name="Icon weather-snowflake-cold" d="M8.952,26.256a1.717,1.717,0,0,1,.478-1.193,1.5,1.5,0,0,1,1.147-.5,1.555,1.555,0,0,1,1.171.5,1.675,1.675,0,0,1,.478,1.193,1.566,1.566,0,0,1-.478,1.145,1.616,1.616,0,0,1-2.293,0A1.489,1.489,0,0,1,8.952,26.256Zm4.73,0a1.717,1.717,0,0,1,.478-1.193,1.5,1.5,0,0,1,1.147-.5h7.716l-5.447-5.439a1.417,1.417,0,0,1-.5-1.121,1.656,1.656,0,0,1,2.843-1.169l5.423,5.416V14.59a1.641,1.641,0,0,1,.5-1.193,1.607,1.607,0,0,1,1.194-.5,1.5,1.5,0,0,1,1.147.5,1.675,1.675,0,0,1,.478,1.193V22.3l5.47-5.487a1.579,1.579,0,0,1,1.147-.5,1.632,1.632,0,0,1,1.171.5,1.725,1.725,0,0,1,.43,1.169,1.528,1.528,0,0,1-.43,1.121L31,24.538h7.716a1.491,1.491,0,0,1,1.123.5,1.675,1.675,0,0,1,.478,1.193,1.631,1.631,0,0,1-1.6,1.6H31l5.47,5.463a1.528,1.528,0,0,1,.43,1.121,1.725,1.725,0,0,1-.43,1.169,1.632,1.632,0,0,1-1.171.5,1.541,1.541,0,0,1-1.147-.5L28.684,30.1v7.73A1.62,1.62,0,0,1,28.206,39a1.57,1.57,0,0,1-1.147.477A1.722,1.722,0,0,1,25.865,39a1.551,1.551,0,0,1-.5-1.169V30.144L19.941,35.56A1.672,1.672,0,0,1,17.1,34.391a1.451,1.451,0,0,1,.5-1.121l5.494-5.463h-7.74a1.57,1.57,0,0,1-1.147-.477A1.221,1.221,0,0,1,13.682,26.256ZM13.706,37.8a1.537,1.537,0,0,1,.5-1.145,1.42,1.42,0,0,1,1.123-.5,1.592,1.592,0,0,1,1.171.5A1.575,1.575,0,0,1,17,37.8a1.537,1.537,0,0,1-.5,1.145,1.592,1.592,0,0,1-1.171.5,1.42,1.42,0,0,1-1.123-.5A1.5,1.5,0,0,1,13.706,37.8Zm0-23.165a1.537,1.537,0,0,1,.5-1.145,1.42,1.42,0,0,1,1.123-.5,1.592,1.592,0,0,1,1.171.5,1.575,1.575,0,0,1,.5,1.145,1.627,1.627,0,0,1-.5,1.169,1.592,1.592,0,0,1-1.171.5,1.42,1.42,0,0,1-1.123-.5A1.627,1.627,0,0,1,13.706,14.637ZM25.292,42.574a1.487,1.487,0,0,1,.5-1.121,1.68,1.68,0,0,1,1.194-.477,1.57,1.57,0,0,1,1.147.477,1.552,1.552,0,0,1,.478,1.121,1.62,1.62,0,0,1-.478,1.169,1.57,1.57,0,0,1-1.147.477,1.722,1.722,0,0,1-1.194-.477A1.515,1.515,0,0,1,25.292,42.574Zm0-32.708a1.551,1.551,0,0,1,.5-1.169,1.68,1.68,0,0,1,1.194-.477,1.57,1.57,0,0,1,1.147.477,1.62,1.62,0,0,1,.478,1.169,1.552,1.552,0,0,1-.478,1.121,1.57,1.57,0,0,1-1.147.477,1.722,1.722,0,0,1-1.194-.477A1.487,1.487,0,0,1,25.292,9.866ZM36.925,37.8a1.537,1.537,0,0,1,.5-1.145,1.42,1.42,0,0,1,1.123-.5,1.592,1.592,0,0,1,1.171.5,1.575,1.575,0,0,1,.5,1.145,1.537,1.537,0,0,1-.5,1.145,1.592,1.592,0,0,1-1.171.5,1.42,1.42,0,0,1-1.123-.5A1.5,1.5,0,0,1,36.925,37.8Zm0-23.165a1.537,1.537,0,0,1,.5-1.145,1.42,1.42,0,0,1,1.123-.5,1.592,1.592,0,0,1,1.171.5,1.575,1.575,0,0,1,.5,1.145,1.627,1.627,0,0,1-.5,1.169,1.592,1.592,0,0,1-1.171.5,1.42,1.42,0,0,1-1.123-.5A1.627,1.627,0,0,1,36.925,14.637ZM41.7,26.256a1.717,1.717,0,0,1,.478-1.193,1.555,1.555,0,0,1,1.171-.5,1.491,1.491,0,0,1,1.123.5,1.676,1.676,0,0,1,.478,1.193,1.631,1.631,0,0,1-1.6,1.6,1.624,1.624,0,0,1-1.171-.477A1.552,1.552,0,0,1,41.7,26.256Z" transform="translate(-8.952 -8.22)" fill="#233611"/>
</svg>
