<svg id="Capa_2" data-name="Capa 2" xmlns="http://www.w3.org/2000/svg" xmlns:xlink="http://www.w3.org/1999/xlink" viewBox="0 0 3000 3000"><defs><style>.cls-1{fill:none;}.cls-2{fill:#548c6b;}.cls-3{fill:#5c9673;}.cls-4{fill:url(#Motivo_nuevo_6);}</style><pattern id="Motivo_nuevo_6" data-name="Motivo nuevo 6" width="438.44" height="452" patternUnits="userSpaceOnUse" viewBox="0 0 438.44 452"><rect class="cls-1" width="438.44" height="452"/><rect class="cls-2" y="339" width="438.44" height="226"/><path class="cls-3" d="M248.13,370.83h0a32.84,32.84,0,0,0-13.71,3.3,29.49,29.49,0,0,0-3.72,2.19c-.51.35-1,.72-1.49,1.1a29.53,29.53,0,0,0-3.28,3,31.8,31.8,0,0,0-6.15,10l-.42,1.06-.42-1.06a31.94,31.94,0,0,0-6.27-10.1,28.27,28.27,0,0,0-3.29-3c-.47-.37-1-.72-1.51-1.1a30,30,0,0,0-3.72-2.16,32.78,32.78,0,0,0-13.58-3.25h0a38.06,38.06,0,0,0-2.81,15.62,31.76,31.76,0,0,0,.52,4.45c.09.49.2,1,.32,1.47.22.87.46,1.71.74,2.53,3,9.06,9.65,15,13.2,17.66a49.49,49.49,0,0,1-8.85-19.23,46.5,46.5,0,0,1-.89-6.23,35.49,35.49,0,0,1,.68-10.88l.09-.36.37,0a20.15,20.15,0,0,1,8.57,2.66,31.86,31.86,0,0,1,4.3,2.87l.85.68a49.27,49.27,0,0,1,4,3.75,71.27,71.27,0,0,1,6.68,8.13c.32.46.65.93,1,1.39.3-.45.63-.91,1-1.39a71.33,71.33,0,0,1,6.54-8,48.18,48.18,0,0,1,4-3.79c.27-.23.55-.45.83-.67a33.1,33.1,0,0,1,4.3-2.91,20.22,20.22,0,0,1,8.72-2.74l.38,0,.09.36a35.26,35.26,0,0,1,.68,10.85,45.37,45.37,0,0,1-.89,6.23,49.33,49.33,0,0,1-8.85,19.26c3.55-2.66,10.15-8.59,13.2-17.63a26.33,26.33,0,0,0,.75-2.57c.12-.48.22-.94.31-1.42a32.2,32.2,0,0,0,.55-4.49c0-.5,0-1,0-1.52A38.61,38.61,0,0,0,248.13,370.83Z"/><path class="cls-3" d="M229.8,375.31c-1.15-3.89-4.08-11.22-10.32-14.47l-.21-.11-.2.11c-6.25,3.25-9.17,10.58-10.33,14.47-1.16-16.2,8.48-21,10.51-21.8h.05C221.33,354.33,231,359.11,229.8,375.31Z"/><path class="cls-3" d="M262.85,394.69a37.26,37.26,0,0,1-3.91,11.42,33.27,33.27,0,0,1-29.6,18.2h-6.43c-.59,0-1.2.07-1.8.08s-1.1,0-1.67,0-1.32,0-2,0-1,0-1.52-.06h-7.34a33.29,33.29,0,0,1-33-29.46,1.16,1.16,0,0,0,0-.18h0A30.49,30.49,0,0,1,186,390.88c.11.53.22,1.06.35,1.58.23.94.5,1.84.79,2.72a17.51,17.51,0,0,0-6.27,1.92l-.27.14.09.3a34.19,34.19,0,0,0,5.43,9.87,44.78,44.78,0,0,0,15,12.51,50.59,50.59,0,0,0,10.34,2.62c.64.09,1.31.16,2,.24s1.31.14,2,.19c1,.08,2,.12,3.08.14h1.82q1.54,0,3.06-.12c.66,0,1.31-.1,2-.17s1.3-.14,1.94-.24a51,51,0,0,0,9.14-2.13,45.08,45.08,0,0,0,16-13,34.19,34.19,0,0,0,5.43-9.87l.09-.3-.27-.15a17.58,17.58,0,0,0-6-1.88q.47-1.34.81-2.76.18-.76.33-1.53a31.28,31.28,0,0,1,9.64,3.47C262.58,394.52,262.74,394.61,262.85,394.69Z"/><rect class="cls-3" x="214.81" y="426.02" width="9.3" height="9.3" rx="3.89" ry="3.89"/><path class="cls-3" d="M250.8,434.85a10,10,0,0,1-.67,1.9h0a10.18,10.18,0,0,1-1.31,2.07h0a10.24,10.24,0,0,1-2.87,2.41,13.54,13.54,0,0,1-4.63,1.75,9.39,9.39,0,0,1-1.5.12,8.65,8.65,0,0,1-2.21-.29h0a8.18,8.18,0,0,1-1.26-.44,9.6,9.6,0,0,1-2.51-1.61l0,0a13.05,13.05,0,0,1-2-2.26c-.26-.36-.5-.74-.73-1.12l-.15-.24-.64,2.37a9.35,9.35,0,0,1-9,6.92h-3.43a9.41,9.41,0,0,1-9.09-7.24l-.5-2.16a14.29,14.29,0,0,1-2.82,3.55l0,0a9.6,9.6,0,0,1-2.51,1.61,8.64,8.64,0,0,1-3.47.73,12.27,12.27,0,0,1-6.14-1.87,10.42,10.42,0,0,1-4.18-4.49h0a9.8,9.8,0,0,1-.66-1.91,8.84,8.84,0,0,1,1.61-7.5,5.54,5.54,0,0,1,3.07-2.07h0a4.75,4.75,0,0,1,1.06-.15,6,6,0,0,1,4,1.4l.21.17a7.78,7.78,0,0,1,2.44,4,.29.29,0,0,1,0,.09,1.9,1.9,0,0,1,.1.57,1.79,1.79,0,0,1-3.56.29l0-.1a4.59,4.59,0,0,0-.39-1h0a2.2,2.2,0,0,0-.15-.26,3.82,3.82,0,0,0-.88-1,2.45,2.45,0,0,0-1.59-.62l-.26,0h0a2,2,0,0,0-1.14.75,5.25,5.25,0,0,0-1,4.54,6.55,6.55,0,0,0,3.15,4.12,7.73,7.73,0,0,0,6.38.95c2.57-.72,4.85-3.45,6.38-5.95h0l.44-.94c.17-.38.39-.83.62-1.3l.07-.15.44-.91a8.61,8.61,0,0,1,.81-1.38l.14-.19a8.24,8.24,0,0,1,.77-.91,7.3,7.3,0,0,1,.71-.65l.14-.12,1.53.19.57.06-.42.29a8.26,8.26,0,0,0-3.3,6.61v1.76a8.31,8.31,0,0,0,8.3,8.3h1.77a8.31,8.31,0,0,0,8.3-8.3v-1.76A8.23,8.23,0,0,0,225.5,427a4.5,4.5,0,0,0-.42-.3l.58-.06,1.53-.18.14.11c.24.21.48.43.7.66s.41.45.6.69h0l.05.07c.09.13.31.44.35.51s.26.41.41.68h0l.14.25c.22.41.46.89.69,1.35l.08.16c.2.4.38.79.54,1.13l.05.17c.25.52.42.9.44.94h0c1.53,2.5,3.81,5.23,6.37,6a7.75,7.75,0,0,0,6.39-1,6.85,6.85,0,0,0,1.58-1.26,6.21,6.21,0,0,0,1.57-2.86,5.1,5.1,0,0,0-.46-3.69,6.79,6.79,0,0,0-.54-.85,1.9,1.9,0,0,0-1.14-.75h0l-.25,0a2.37,2.37,0,0,0-1.6.62,4.17,4.17,0,0,0-.88,1l-.15.27h0a4.53,4.53,0,0,0-.37,1l0,.1a1.79,1.79,0,1,1-3.46-.87s0-.07,0-.1a8.63,8.63,0,0,1,.35-1.09,7.77,7.77,0,0,1,2.09-2.94l.2-.17a6,6,0,0,1,4-1.4,5.29,5.29,0,0,1,.89.12l.19,0h0a5.48,5.48,0,0,1,3.07,2.07A8.89,8.89,0,0,1,250.8,434.85Z"/><rect class="cls-2" y="113" width="438.44" height="226"/><path class="cls-3" d="M248.13,144.83h0a32.84,32.84,0,0,0-13.71,3.3,29.49,29.49,0,0,0-3.72,2.19c-.51.35-1,.72-1.49,1.1a29.53,29.53,0,0,0-3.28,3,31.8,31.8,0,0,0-6.15,10l-.42,1.06-.42-1.06a31.94,31.94,0,0,0-6.27-10.1,28.27,28.27,0,0,0-3.29-3c-.47-.37-1-.72-1.51-1.1a30,30,0,0,0-3.72-2.16,32.78,32.78,0,0,0-13.58-3.25h0a38.06,38.06,0,0,0-2.81,15.62,31.76,31.76,0,0,0,.52,4.45c.09.49.2,1,.32,1.47.22.87.46,1.71.74,2.53,3,9.06,9.65,15,13.2,17.66a49.49,49.49,0,0,1-8.85-19.23,46.5,46.5,0,0,1-.89-6.23,35.49,35.49,0,0,1,.68-10.88l.09-.36.37,0a20.15,20.15,0,0,1,8.57,2.66,31.86,31.86,0,0,1,4.3,2.87l.85.68a49.27,49.27,0,0,1,4,3.75,71.27,71.27,0,0,1,6.68,8.13c.32.46.65.93,1,1.39.3-.45.63-.91,1-1.39a71.33,71.33,0,0,1,6.54-8,48.18,48.18,0,0,1,4-3.79c.27-.23.55-.45.83-.67a33.1,33.1,0,0,1,4.3-2.91,20.22,20.22,0,0,1,8.72-2.74l.38,0,.09.36a35.26,35.26,0,0,1,.68,10.85,45.37,45.37,0,0,1-.89,6.23,49.33,49.33,0,0,1-8.85,19.26c3.55-2.66,10.15-8.59,13.2-17.63a26.33,26.33,0,0,0,.75-2.57c.12-.48.22-.94.31-1.42a32.2,32.2,0,0,0,.55-4.49c0-.5,0-1,0-1.52A38.61,38.61,0,0,0,248.13,144.83Z"/><path class="cls-3" d="M229.8,149.31c-1.15-3.89-4.08-11.22-10.32-14.47l-.21-.11-.2.11c-6.25,3.25-9.17,10.58-10.33,14.47-1.16-16.2,8.48-21,10.51-21.8h.05C221.33,128.33,231,133.11,229.8,149.31Z"/><path class="cls-3" d="M262.85,168.69a37.26,37.26,0,0,1-3.91,11.42,33.27,33.27,0,0,1-29.6,18.2h-6.43c-.59,0-1.2.07-1.8.08s-1.1,0-1.67,0-1.32,0-2,0-1,0-1.52-.06h-7.34a33.29,33.29,0,0,1-33-29.46,1.16,1.16,0,0,0,0-.18h0A30.49,30.49,0,0,1,186,164.88c.11.53.22,1.06.35,1.58.23.94.5,1.84.79,2.72a17.51,17.51,0,0,0-6.27,1.92l-.27.14.09.3a34.19,34.19,0,0,0,5.43,9.87,44.78,44.78,0,0,0,15,12.51,50.59,50.59,0,0,0,10.34,2.62c.64.09,1.31.16,2,.24s1.31.14,2,.19c1,.08,2,.12,3.08.14h1.82q1.54,0,3.06-.12c.66,0,1.31-.1,2-.17s1.3-.14,1.94-.24a51,51,0,0,0,9.14-2.13,45.08,45.08,0,0,0,16-13,34.19,34.19,0,0,0,5.43-9.87l.09-.3-.27-.15a17.58,17.58,0,0,0-6-1.88q.47-1.33.81-2.76.18-.77.33-1.53a31.28,31.28,0,0,1,9.64,3.47C262.58,168.52,262.74,168.61,262.85,168.69Z"/><rect class="cls-3" x="214.81" y="200.02" width="9.3" height="9.3" rx="3.89" ry="3.89"/><path class="cls-3" d="M250.8,208.85a10,10,0,0,1-.67,1.9h0a10.18,10.18,0,0,1-1.31,2.07h0a10.24,10.24,0,0,1-2.87,2.41,13.54,13.54,0,0,1-4.63,1.75,9.39,9.39,0,0,1-1.5.12,8.65,8.65,0,0,1-2.21-.29h0a8.18,8.18,0,0,1-1.26-.44,9.6,9.6,0,0,1-2.51-1.61l0,0a13.05,13.05,0,0,1-2-2.26c-.26-.36-.5-.74-.73-1.12l-.15-.24-.64,2.37a9.35,9.35,0,0,1-9,6.92h-3.43a9.41,9.41,0,0,1-9.09-7.24l-.5-2.16a14.29,14.29,0,0,1-2.82,3.55l0,0a9.6,9.6,0,0,1-2.51,1.61,8.64,8.64,0,0,1-3.47.73,12.27,12.27,0,0,1-6.14-1.87,10.42,10.42,0,0,1-4.18-4.49h0a9.8,9.8,0,0,1-.66-1.91,8.84,8.84,0,0,1,1.61-7.5,5.54,5.54,0,0,1,3.07-2.07h0a4.75,4.75,0,0,1,1.06-.15,6,6,0,0,1,4,1.4l.21.17a7.78,7.78,0,0,1,2.44,4,.29.29,0,0,1,0,.09,1.9,1.9,0,0,1,.1.57,1.79,1.79,0,0,1-3.56.29l0-.1a4.59,4.59,0,0,0-.39-1h0a2.2,2.2,0,0,0-.15-.26,3.82,3.82,0,0,0-.88-1,2.45,2.45,0,0,0-1.59-.62l-.26,0h0a2,2,0,0,0-1.14.75,5.25,5.25,0,0,0-1,4.54,6.55,6.55,0,0,0,3.15,4.12,7.73,7.73,0,0,0,6.38.95c2.57-.72,4.85-3.45,6.38-5.95h0l.44-.94c.17-.38.39-.83.62-1.3l.07-.15.44-.91a8.61,8.61,0,0,1,.81-1.38l.14-.19a8.24,8.24,0,0,1,.77-.91,7.3,7.3,0,0,1,.71-.65l.14-.12,1.53.19.57.06-.42.29a8.26,8.26,0,0,0-3.3,6.61v1.76a8.31,8.31,0,0,0,8.3,8.3h1.77a8.31,8.31,0,0,0,8.3-8.3v-1.76A8.23,8.23,0,0,0,225.5,201a4.5,4.5,0,0,0-.42-.3l.58-.06,1.53-.18.14.11c.24.21.48.43.7.66s.41.45.6.69h0l.05.07c.09.13.31.44.35.51s.26.41.41.68h0l.14.25c.22.41.46.89.69,1.35l.08.16c.2.4.38.79.54,1.13l.05.17c.25.52.42.9.44.94h0c1.53,2.5,3.81,5.23,6.37,5.95a7.75,7.75,0,0,0,6.39-.95,6.85,6.85,0,0,0,1.58-1.26,6.21,6.21,0,0,0,1.57-2.86,5.1,5.1,0,0,0-.46-3.69,6.79,6.79,0,0,0-.54-.85,1.9,1.9,0,0,0-1.14-.75h0l-.25,0a2.37,2.37,0,0,0-1.6.62,4.17,4.17,0,0,0-.88,1l-.15.27h0a4.53,4.53,0,0,0-.37,1l0,.1a1.79,1.79,0,1,1-3.46-.87s0-.07,0-.1a8.63,8.63,0,0,1,.35-1.09,7.77,7.77,0,0,1,2.09-2.94l.2-.17a6,6,0,0,1,4-1.4,5.29,5.29,0,0,1,.89.12l.19,0h0a5.48,5.48,0,0,1,3.07,2.07A8.89,8.89,0,0,1,250.8,208.85Z"/><path class="cls-3" d="M395.68,254.44h0a32.83,32.83,0,0,0-13.7,3.3,30.33,30.33,0,0,0-3.73,2.19c-.5.35-1,.72-1.49,1.1a30.34,30.34,0,0,0-3.27,3,31.8,31.8,0,0,0-6.15,10l-.42,1.06L366.5,274a31.94,31.94,0,0,0-6.27-10.1,28.27,28.27,0,0,0-3.29-3c-.47-.37-1-.72-1.51-1.1a29.4,29.4,0,0,0-3.73-2.16,32.72,32.72,0,0,0-13.57-3.25h0a38,38,0,0,0-2.8,15.62,31.76,31.76,0,0,0,.52,4.45c.09.49.2,1,.32,1.47.21.87.46,1.71.74,2.53,3,9.06,9.65,15,13.2,17.66a49.49,49.49,0,0,1-8.85-19.23,44.93,44.93,0,0,1-.89-6.23,35.49,35.49,0,0,1,.68-10.88l.09-.36.37,0a20.15,20.15,0,0,1,8.57,2.66,31.86,31.86,0,0,1,4.3,2.87l.85.68a49.27,49.27,0,0,1,4,3.75,71.27,71.27,0,0,1,6.68,8.13c.32.46.65.93,1,1.39.3-.45.62-.91,1-1.39a71.33,71.33,0,0,1,6.54-8,46.68,46.68,0,0,1,4-3.79c.27-.23.55-.45.83-.67a33.1,33.1,0,0,1,4.3-2.91,20.22,20.22,0,0,1,8.72-2.74l.37,0,.1.36a35.26,35.26,0,0,1,.68,10.85,45.37,45.37,0,0,1-.89,6.23,49.33,49.33,0,0,1-8.85,19.26c3.55-2.66,10.15-8.59,13.2-17.63.28-.83.54-1.69.75-2.57.12-.48.22-.94.31-1.42a30.75,30.75,0,0,0,.54-4.49c0-.5,0-1,0-1.52A38.42,38.42,0,0,0,395.68,254.44Z"/><path class="cls-3" d="M377.36,258.92c-1.15-3.89-4.08-11.22-10.32-14.47l-.21-.11-.21.11c-6.24,3.25-9.16,10.58-10.32,14.47-1.16-16.2,8.48-21,10.51-21.8h.05C368.89,237.94,378.53,242.72,377.36,258.92Z"/><path class="cls-3" d="M410.4,278.3a37,37,0,0,1-3.9,11.42,33.3,33.3,0,0,1-29.6,18.2h-6.43c-.59,0-1.2.07-1.81.08s-1.1,0-1.66,0-1.32,0-2,0-1,0-1.52-.07h-7.35a33.28,33.28,0,0,1-33-29.45,1.16,1.16,0,0,1,0-.18h0a30.62,30.62,0,0,1,10.37-3.79c.1.53.22,1.06.35,1.58.23.94.49,1.84.79,2.72a17.51,17.51,0,0,0-6.27,1.92l-.27.14.09.3a34.19,34.19,0,0,0,5.43,9.87,44.78,44.78,0,0,0,15,12.51A50.59,50.59,0,0,0,359,306.15c.64.09,1.31.16,1.95.24s1.3.14,2,.19c1,.08,2,.12,3.08.14h1.82q1.54,0,3.06-.12c.66,0,1.31-.1,2-.17s1.3-.14,1.94-.24a51,51,0,0,0,9.14-2.13,45.08,45.08,0,0,0,16-13,34.19,34.19,0,0,0,5.43-9.87l.09-.3-.27-.15a17.58,17.58,0,0,0-6-1.88q.46-1.33.81-2.76.18-.76.33-1.53a31.28,31.28,0,0,1,9.64,3.47A5,5,0,0,1,410.4,278.3Z"/><rect class="cls-3" x="362.37" y="309.63" width="9.3" height="9.3" rx="3.89" ry="3.89"/><path class="cls-3" d="M398.36,318.46a9.65,9.65,0,0,1-.67,1.89h0a10,10,0,0,1-1.31,2.08h0a10.53,10.53,0,0,1-2.87,2.41,13.54,13.54,0,0,1-4.63,1.75,9.39,9.39,0,0,1-1.5.12,8.65,8.65,0,0,1-2.21-.29h0a8.69,8.69,0,0,1-1.27-.44,9.71,9.71,0,0,1-2.5-1.61l0,0a13.05,13.05,0,0,1-2-2.26c-.26-.36-.5-.74-.73-1.12l-.15-.24-.64,2.37a9.35,9.35,0,0,1-9,6.92h-3.43a9.43,9.43,0,0,1-9.1-7.24l-.49-2.16a14.1,14.1,0,0,1-2.83,3.55v0a9.6,9.6,0,0,1-2.51,1.61,8.64,8.64,0,0,1-3.47.73,12.27,12.27,0,0,1-6.14-1.87,10.42,10.42,0,0,1-4.18-4.49h0a9.19,9.19,0,0,1-.66-1.91,8.84,8.84,0,0,1,1.61-7.5,5.54,5.54,0,0,1,3.07-2.07h0a4.75,4.75,0,0,1,1.06-.15,6,6,0,0,1,4,1.4l.21.17a7.78,7.78,0,0,1,2.44,4,.29.29,0,0,1,0,.09,2.28,2.28,0,0,1,.1.57,1.79,1.79,0,0,1-3.56.29l0-.1a4.59,4.59,0,0,0-.39-1h0l-.15-.26a3.82,3.82,0,0,0-.88-1,2.45,2.45,0,0,0-1.59-.62l-.26,0h0a1.93,1.93,0,0,0-1.14.75,5.25,5.25,0,0,0-1,4.54,6.55,6.55,0,0,0,3.15,4.12,7.73,7.73,0,0,0,6.38.95c2.57-.72,4.85-3.45,6.38-5.95h0s.18-.41.44-.94.39-.83.62-1.3l.07-.15.44-.91a8.61,8.61,0,0,1,.81-1.38l.14-.19a8.24,8.24,0,0,1,.77-.91,8.55,8.55,0,0,1,.7-.65l.15-.12,1.53.19.57.06-.42.29a8.26,8.26,0,0,0-3.3,6.61v1.76a8.31,8.31,0,0,0,8.3,8.3H368a8.31,8.31,0,0,0,8.3-8.3v-1.76a8.23,8.23,0,0,0-3.26-6.57l-.42-.3.58-.06,1.53-.18.14.11c.24.21.47.43.7.66s.41.45.6.69h0l.05.07c.09.13.31.44.35.51s.26.41.41.68h0l.14.25c.22.41.46.89.69,1.35l.08.16c.2.4.38.79.54,1.13l.05.17c.25.52.42.9.44.94h0c1.53,2.5,3.81,5.23,6.37,5.95a7.75,7.75,0,0,0,6.39-.95,6.85,6.85,0,0,0,1.58-1.26,6.21,6.21,0,0,0,1.57-2.86,5.15,5.15,0,0,0-.46-3.69,6.79,6.79,0,0,0-.54-.85,1.93,1.93,0,0,0-1.14-.75h0l-.25,0a2.37,2.37,0,0,0-1.6.62,4,4,0,0,0-.88,1l-.15.27h0a4.53,4.53,0,0,0-.37,1,.42.42,0,0,1,0,.1,1.79,1.79,0,0,1-3.55-.31,2.13,2.13,0,0,1,.1-.56s0-.07,0-.1a8.63,8.63,0,0,1,.35-1.09,7.77,7.77,0,0,1,2.09-2.94l.2-.17a6,6,0,0,1,4-1.4,5.29,5.29,0,0,1,.89.12l.19,0h0a5.48,5.48,0,0,1,3.07,2.07A8.89,8.89,0,0,1,398.36,318.46Z"/><path class="cls-3" d="M100.57,254.44h0a32.84,32.84,0,0,0-13.71,3.3,29.49,29.49,0,0,0-3.72,2.19c-.51.35-1,.72-1.49,1.1a29.53,29.53,0,0,0-3.28,3,31.8,31.8,0,0,0-6.15,10l-.42,1.06L71.38,274a31.94,31.94,0,0,0-6.27-10.1,28.27,28.27,0,0,0-3.29-3c-.47-.37-1-.72-1.51-1.1a29.29,29.29,0,0,0-3.72-2.16A32.78,32.78,0,0,0,43,254.43h0a38.06,38.06,0,0,0-2.81,15.62,31.76,31.76,0,0,0,.52,4.45c.1.49.2,1,.32,1.47.22.87.46,1.71.74,2.53,3,9.06,9.65,15,13.2,17.66a49.49,49.49,0,0,1-8.85-19.23,46.5,46.5,0,0,1-.89-6.23,35.49,35.49,0,0,1,.68-10.88l.1-.36.36,0A20.15,20.15,0,0,1,55,262.14a31.86,31.86,0,0,1,4.3,2.87l.85.68a49.27,49.27,0,0,1,4,3.75,70.23,70.23,0,0,1,6.68,8.13c.33.46.65.93,1,1.39l1-1.39a72.45,72.45,0,0,1,6.54-8,49.78,49.78,0,0,1,4-3.79c.27-.23.55-.45.83-.67a33.8,33.8,0,0,1,4.3-2.91,20.26,20.26,0,0,1,8.72-2.74l.38,0,.09.36a35.26,35.26,0,0,1,.68,10.85,43.88,43.88,0,0,1-.89,6.23,49.33,49.33,0,0,1-8.85,19.26c3.55-2.66,10.15-8.59,13.2-17.63a26.33,26.33,0,0,0,.75-2.57,14.42,14.42,0,0,0,.31-1.42,30.76,30.76,0,0,0,.55-4.49c0-.5,0-1,0-1.52A38.61,38.61,0,0,0,100.57,254.44Z"/><path class="cls-3" d="M82.24,258.92c-1.15-3.89-4.08-11.22-10.32-14.47l-.21-.11-.2.11c-6.24,3.25-9.17,10.58-10.33,14.47-1.16-16.2,8.48-21,10.51-21.8h0C73.77,237.94,83.41,242.72,82.24,258.92Z"/><path class="cls-3" d="M115.29,278.3a37,37,0,0,1-3.91,11.42,33.27,33.27,0,0,1-29.6,18.2H75.35c-.59,0-1.2.07-1.8.08s-1.1,0-1.67,0-1.32,0-2,0-1,0-1.52-.06H61.05a33.29,33.29,0,0,1-33-29.46l0-.18a0,0,0,0,1,0,0,30.49,30.49,0,0,1,10.36-3.79c.11.53.22,1.06.35,1.58.23.94.5,1.84.79,2.72a17.51,17.51,0,0,0-6.27,1.92l-.27.14.09.3A34.19,34.19,0,0,0,38.53,291a44.89,44.89,0,0,0,15,12.51,50.59,50.59,0,0,0,10.34,2.62c.64.09,1.31.16,2,.24s1.31.14,2,.19c1,.08,2,.12,3.08.14h1.82q1.55,0,3.06-.12c.66,0,1.32-.1,2-.17s1.3-.14,1.94-.24a51,51,0,0,0,9.14-2.13,45.08,45.08,0,0,0,16-13,34.19,34.19,0,0,0,5.43-9.87l.09-.3-.27-.15a17.58,17.58,0,0,0-6-1.88q.46-1.33.81-2.76.18-.76.33-1.53a31.28,31.28,0,0,1,9.64,3.47C115,278.13,115.18,278.22,115.29,278.3Z"/><rect class="cls-3" x="67.25" y="309.63" width="9.3" height="9.3" rx="3.89" ry="3.89"/><path class="cls-3" d="M103.24,318.46a10,10,0,0,1-.66,1.9h0a10.68,10.68,0,0,1-1.32,2.07h0a10.24,10.24,0,0,1-2.87,2.41,13.57,13.57,0,0,1-4.62,1.75,9.61,9.61,0,0,1-1.51.12,8.65,8.65,0,0,1-2.21-.29h0a8.18,8.18,0,0,1-1.26-.44,9.6,9.6,0,0,1-2.51-1.61l0,0a13.05,13.05,0,0,1-2-2.26,13.3,13.3,0,0,1-.72-1.12l-.16-.24-.64,2.37a9.35,9.35,0,0,1-9,6.92H70.3a9.41,9.41,0,0,1-9.09-7.24l-.5-2.16a14.29,14.29,0,0,1-2.82,3.55l0,0a9.6,9.6,0,0,1-2.51,1.61,8.6,8.6,0,0,1-3.47.73,12.23,12.23,0,0,1-6.13-1.87,10.38,10.38,0,0,1-4.19-4.49h0a9.8,9.8,0,0,1-.66-1.91,8.87,8.87,0,0,1,1.61-7.5,5.54,5.54,0,0,1,3.07-2.07h0a4.75,4.75,0,0,1,1.06-.15,5.93,5.93,0,0,1,4,1.4l.21.17a7.86,7.86,0,0,1,2.45,4s0,.06,0,.09a1.9,1.9,0,0,1,.1.57,1.79,1.79,0,0,1-3.56.29l0-.1a4.59,4.59,0,0,0-.39-1h0a1.35,1.35,0,0,0-.15-.26,3.82,3.82,0,0,0-.88-1,2.45,2.45,0,0,0-1.59-.62l-.25,0h0a2,2,0,0,0-1.15.75,5.25,5.25,0,0,0-1,4.54,6.55,6.55,0,0,0,3.15,4.12,7.73,7.73,0,0,0,6.38.95c2.57-.72,4.85-3.45,6.38-5.95h0l.44-.94c.17-.38.39-.83.62-1.3l.07-.15.44-.91a8.61,8.61,0,0,1,.81-1.38l.14-.19a9.5,9.5,0,0,1,.77-.91,7.3,7.3,0,0,1,.71-.65l.14-.12,1.53.19.57.06-.41.29a8.2,8.2,0,0,0-3.3,6.61v1.76a8.29,8.29,0,0,0,8.3,8.3H72.9a8.31,8.31,0,0,0,8.3-8.3v-1.76a8.23,8.23,0,0,0-3.26-6.57,4.5,4.5,0,0,0-.42-.3l.58-.06,1.53-.18.14.11c.24.21.48.43.7.66s.41.45.6.69h0l.05.07c.09.13.31.44.35.51s.26.41.41.68h0L82,313c.23.41.46.89.69,1.35l.08.16c.2.4.38.79.54,1.13l0,.17c.25.52.42.9.44.94h0c1.53,2.5,3.81,5.23,6.37,5.95a7.75,7.75,0,0,0,6.39-.95,6.85,6.85,0,0,0,1.58-1.26,6.21,6.21,0,0,0,1.57-2.86,5.1,5.1,0,0,0-.46-3.69,5.81,5.81,0,0,0-.54-.85,1.9,1.9,0,0,0-1.14-.75h0l-.25,0a2.37,2.37,0,0,0-1.6.62,3.92,3.92,0,0,0-.87,1,2.4,2.4,0,0,0-.16.27h0a4.53,4.53,0,0,0-.37,1l0,.1a1.79,1.79,0,1,1-3.46-.87s0-.07,0-.1a8.63,8.63,0,0,1,.35-1.09,7.77,7.77,0,0,1,2.09-2.94l.21-.17a5.93,5.93,0,0,1,4-1.4,5.32,5.32,0,0,1,.88.12l.19,0h0a5.44,5.44,0,0,1,3.07,2.07A8.86,8.86,0,0,1,103.24,318.46Z"/><rect class="cls-2" y="-113" width="438.44" height="226"/><path class="cls-3" d="M395.68,28.44h0a32.83,32.83,0,0,0-13.7,3.3,30.33,30.33,0,0,0-3.73,2.19c-.5.35-1,.72-1.49,1.1a30.34,30.34,0,0,0-3.27,3,31.8,31.8,0,0,0-6.15,10l-.42,1.06L366.5,48a31.94,31.94,0,0,0-6.27-10.1,28.27,28.27,0,0,0-3.29-3c-.47-.37-1-.72-1.51-1.1a29.4,29.4,0,0,0-3.73-2.16,32.72,32.72,0,0,0-13.57-3.25h0a38,38,0,0,0-2.8,15.62,31.76,31.76,0,0,0,.52,4.45c.09.49.2,1,.32,1.47.21.87.46,1.71.74,2.53,3,9.06,9.65,15,13.2,17.66a49.49,49.49,0,0,1-8.85-19.23,44.93,44.93,0,0,1-.89-6.23A35.49,35.49,0,0,1,341,33.82l.09-.36.37,0a20.15,20.15,0,0,1,8.57,2.66,31.86,31.86,0,0,1,4.3,2.87l.85.68a49.27,49.27,0,0,1,4,3.75,71.27,71.27,0,0,1,6.68,8.13c.32.46.65.93,1,1.39.3-.45.62-.91,1-1.39a71.33,71.33,0,0,1,6.54-8,46.68,46.68,0,0,1,4-3.79c.27-.23.55-.45.83-.67a33.1,33.1,0,0,1,4.3-2.91,20.22,20.22,0,0,1,8.72-2.74l.37,0,.1.36a35.26,35.26,0,0,1,.68,10.85,45.37,45.37,0,0,1-.89,6.23,49.33,49.33,0,0,1-8.85,19.26c3.55-2.66,10.15-8.59,13.2-17.63.28-.83.54-1.69.75-2.57.12-.48.22-.94.31-1.42a30.75,30.75,0,0,0,.54-4.49c0-.5,0-1,0-1.52A38.42,38.42,0,0,0,395.68,28.44Z"/><path class="cls-3" d="M377.36,32.92C376.21,29,373.28,21.7,367,18.45l-.21-.11-.21.11C360.38,21.7,357.46,29,356.3,32.92c-1.16-16.2,8.48-21,10.51-21.8h.05C368.89,11.94,378.53,16.72,377.36,32.92Z"/><path class="cls-3" d="M410.4,52.3a37,37,0,0,1-3.9,11.42,33.3,33.3,0,0,1-29.6,18.2h-6.43c-.59,0-1.2.07-1.81.08s-1.1,0-1.66,0-1.32,0-2,0-1,0-1.52-.07h-7.35a33.28,33.28,0,0,1-33-29.45,1.16,1.16,0,0,1,0-.18h0a30.62,30.62,0,0,1,10.37-3.79c.1.53.22,1.06.35,1.58.23.94.49,1.84.79,2.72a17.51,17.51,0,0,0-6.27,1.92l-.27.14.09.3A34.19,34.19,0,0,0,333.65,65a44.78,44.78,0,0,0,15,12.51A50.59,50.59,0,0,0,359,80.15c.64.09,1.31.16,1.95.24s1.3.14,2,.19c1,.08,2,.12,3.08.14h1.82q1.54,0,3.06-.12c.66,0,1.31-.1,2-.17s1.3-.14,1.94-.24a51,51,0,0,0,9.14-2.13,45.08,45.08,0,0,0,16-13,34.19,34.19,0,0,0,5.43-9.87l.09-.3-.27-.15a17.58,17.58,0,0,0-6-1.88q.46-1.34.81-2.76.18-.76.33-1.53A31.28,31.28,0,0,1,409.94,52,5,5,0,0,1,410.4,52.3Z"/><rect class="cls-3" x="362.37" y="83.63" width="9.3" height="9.3" rx="3.89" ry="3.89"/><path class="cls-3" d="M398.36,92.46a9.65,9.65,0,0,1-.67,1.89h0a10,10,0,0,1-1.31,2.08h0a10.53,10.53,0,0,1-2.87,2.41,13.54,13.54,0,0,1-4.63,1.75,9.39,9.39,0,0,1-1.5.12,8.65,8.65,0,0,1-2.21-.29h0a8.69,8.69,0,0,1-1.27-.44,9.71,9.71,0,0,1-2.5-1.61l0,0a13.05,13.05,0,0,1-2-2.26c-.26-.36-.5-.74-.73-1.12l-.15-.24-.64,2.37a9.35,9.35,0,0,1-9,6.92h-3.43a9.43,9.43,0,0,1-9.1-7.24l-.49-2.16A14.1,14.1,0,0,1,353,98.17v0a9.6,9.6,0,0,1-2.51,1.61,8.64,8.64,0,0,1-3.47.73,12.27,12.27,0,0,1-6.14-1.87,10.42,10.42,0,0,1-4.18-4.49h0a9.19,9.19,0,0,1-.66-1.91,8.84,8.84,0,0,1,1.61-7.5,5.54,5.54,0,0,1,3.07-2.07h0a4.75,4.75,0,0,1,1.06-.15,6,6,0,0,1,4,1.4l.21.17a7.78,7.78,0,0,1,2.44,4,.29.29,0,0,1,0,.09,2.28,2.28,0,0,1,.1.57,1.79,1.79,0,0,1-3.56.29l0-.1a4.59,4.59,0,0,0-.39-1h0l-.15-.26a3.82,3.82,0,0,0-.88-1,2.45,2.45,0,0,0-1.59-.62l-.26,0h0a1.93,1.93,0,0,0-1.14.75,5.25,5.25,0,0,0-1,4.54,6.55,6.55,0,0,0,3.15,4.12,7.73,7.73,0,0,0,6.38,1c2.57-.72,4.85-3.45,6.38-6h0s.18-.41.44-.94c.17-.38.39-.83.62-1.3l.07-.15.44-.91a8.61,8.61,0,0,1,.81-1.38l.14-.19a8.24,8.24,0,0,1,.77-.91,8.55,8.55,0,0,1,.7-.65l.15-.12,1.53.19.57.06-.42.29a8.26,8.26,0,0,0-3.3,6.61v1.76a8.31,8.31,0,0,0,8.3,8.3H368a8.31,8.31,0,0,0,8.3-8.3V91.15a8.23,8.23,0,0,0-3.26-6.57c-.14-.11-.27-.2-.42-.3l.58-.06,1.53-.18.14.11c.24.21.47.43.7.66s.41.45.6.69h0l.05.07c.09.13.31.44.35.51s.26.41.41.68h0l.14.25c.22.41.46.89.69,1.35l.08.16c.2.4.38.79.54,1.13l.05.17c.25.52.42.9.44.94h0c1.53,2.5,3.81,5.23,6.37,5.95a7.75,7.75,0,0,0,6.39-.95,6.85,6.85,0,0,0,1.58-1.26,6.21,6.21,0,0,0,1.57-2.86,5.15,5.15,0,0,0-.46-3.69,6.79,6.79,0,0,0-.54-.85,1.93,1.93,0,0,0-1.14-.75h0l-.25,0a2.37,2.37,0,0,0-1.6.62,4,4,0,0,0-.88,1c-.05.08-.1.18-.15.27h0a4.53,4.53,0,0,0-.37,1,.42.42,0,0,1,0,.1,1.79,1.79,0,0,1-3.55-.31,2.13,2.13,0,0,1,.1-.56s0-.07,0-.1a8.63,8.63,0,0,1,.35-1.09,7.77,7.77,0,0,1,2.09-2.94l.2-.17a6,6,0,0,1,4-1.4,5.29,5.29,0,0,1,.89.12l.19,0h0A5.48,5.48,0,0,1,396.75,85,8.89,8.89,0,0,1,398.36,92.46Z"/><path class="cls-3" d="M100.57,28.44h0a32.84,32.84,0,0,0-13.71,3.3,29.49,29.49,0,0,0-3.72,2.19c-.51.35-1,.72-1.49,1.1a29.53,29.53,0,0,0-3.28,3,31.8,31.8,0,0,0-6.15,10L71.8,49.1,71.38,48a31.94,31.94,0,0,0-6.27-10.1,28.27,28.27,0,0,0-3.29-3c-.47-.37-1-.72-1.51-1.1a29.29,29.29,0,0,0-3.72-2.16A32.78,32.78,0,0,0,43,28.43h0A38.06,38.06,0,0,0,40.2,44.05a31.76,31.76,0,0,0,.52,4.45c.1.49.2,1,.32,1.47.22.87.46,1.71.74,2.53,3,9.06,9.65,15,13.2,17.66a49.49,49.49,0,0,1-8.85-19.23,46.5,46.5,0,0,1-.89-6.23,35.49,35.49,0,0,1,.68-10.88l.1-.36.36,0A20.15,20.15,0,0,1,55,36.14,31.86,31.86,0,0,1,59.25,39l.85.68a49.27,49.27,0,0,1,4,3.75,70.23,70.23,0,0,1,6.68,8.13c.33.46.65.93,1,1.39l1-1.39a72.45,72.45,0,0,1,6.54-8,49.78,49.78,0,0,1,4-3.79c.27-.23.55-.45.83-.67a33.8,33.8,0,0,1,4.3-2.91,20.26,20.26,0,0,1,8.72-2.74l.38,0,.09.36a35.26,35.26,0,0,1,.68,10.85,43.88,43.88,0,0,1-.89,6.23,49.33,49.33,0,0,1-8.85,19.26c3.55-2.66,10.15-8.59,13.2-17.63a26.33,26.33,0,0,0,.75-2.57,14.42,14.42,0,0,0,.31-1.42,30.76,30.76,0,0,0,.55-4.49c0-.5,0-1,0-1.52A38.61,38.61,0,0,0,100.57,28.44Z"/><path class="cls-3" d="M82.24,32.92C81.09,29,78.16,21.7,71.92,18.45l-.21-.11-.2.11C65.27,21.7,62.34,29,61.18,32.92c-1.16-16.2,8.48-21,10.51-21.8h0C73.77,11.94,83.41,16.72,82.24,32.92Z"/><path class="cls-3" d="M115.29,52.3a37,37,0,0,1-3.91,11.42,33.27,33.27,0,0,1-29.6,18.2H75.35c-.59,0-1.2.07-1.8.08s-1.1,0-1.67,0-1.32,0-2,0-1,0-1.52-.06H61.05a33.29,33.29,0,0,1-33-29.46l0-.18h0a30.49,30.49,0,0,1,10.36-3.79c.11.53.22,1.06.35,1.58.23.94.5,1.84.79,2.72a17.51,17.51,0,0,0-6.27,1.92l-.27.14.09.3A34.19,34.19,0,0,0,38.53,65a44.89,44.89,0,0,0,15,12.51,50.59,50.59,0,0,0,10.34,2.62c.64.09,1.31.16,2,.24s1.31.14,2,.19c1,.08,2,.12,3.08.14h1.82q1.55,0,3.06-.12c.66,0,1.32-.1,2-.17s1.3-.14,1.94-.24a51,51,0,0,0,9.14-2.13,45.08,45.08,0,0,0,16-13,34.19,34.19,0,0,0,5.43-9.87l.09-.3-.27-.15a17.58,17.58,0,0,0-6-1.88q.46-1.34.81-2.76.18-.76.33-1.53A31.28,31.28,0,0,1,114.82,52C115,52.13,115.18,52.22,115.29,52.3Z"/><rect class="cls-3" x="67.25" y="83.63" width="9.3" height="9.3" rx="3.89" ry="3.89"/><path class="cls-3" d="M103.24,92.46a10,10,0,0,1-.66,1.9h0a10.68,10.68,0,0,1-1.32,2.07h0a10.24,10.24,0,0,1-2.87,2.41,13.57,13.57,0,0,1-4.62,1.75,9.61,9.61,0,0,1-1.51.12,8.65,8.65,0,0,1-2.21-.29h0a8.18,8.18,0,0,1-1.26-.44,9.6,9.6,0,0,1-2.51-1.61l0,0a13.05,13.05,0,0,1-2-2.26A13.3,13.3,0,0,1,83.54,95l-.16-.24-.64,2.37a9.35,9.35,0,0,1-9,6.92H70.3a9.41,9.41,0,0,1-9.09-7.24l-.5-2.16a14.29,14.29,0,0,1-2.82,3.55l0,0a9.6,9.6,0,0,1-2.51,1.61,8.6,8.6,0,0,1-3.47.73,12.23,12.23,0,0,1-6.13-1.87,10.38,10.38,0,0,1-4.19-4.49h0a9.8,9.8,0,0,1-.66-1.91,8.87,8.87,0,0,1,1.61-7.5,5.54,5.54,0,0,1,3.07-2.07h0a4.75,4.75,0,0,1,1.06-.15,5.93,5.93,0,0,1,4,1.4l.21.17a7.86,7.86,0,0,1,2.45,4s0,.06,0,.09a1.9,1.9,0,0,1,.1.57,1.79,1.79,0,0,1-3.56.29l0-.1a4.59,4.59,0,0,0-.39-1h0a1.35,1.35,0,0,0-.15-.26,3.82,3.82,0,0,0-.88-1,2.45,2.45,0,0,0-1.59-.62l-.25,0h0a2,2,0,0,0-1.15.75,5.25,5.25,0,0,0-1,4.54,6.55,6.55,0,0,0,3.15,4.12,7.73,7.73,0,0,0,6.38,1c2.57-.72,4.85-3.45,6.38-6h0l.44-.94c.17-.38.39-.83.62-1.3l.07-.15.44-.91a8.61,8.61,0,0,1,.81-1.38l.14-.19a9.5,9.5,0,0,1,.77-.91,7.3,7.3,0,0,1,.71-.65l.14-.12,1.53.19.57.06-.41.29a8.2,8.2,0,0,0-3.3,6.61v1.76a8.29,8.29,0,0,0,8.3,8.3H72.9a8.31,8.31,0,0,0,8.3-8.3V91.15a8.23,8.23,0,0,0-3.26-6.57,4.5,4.5,0,0,0-.42-.3l.58-.06L79.63,84l.14.11c.24.21.48.43.7.66s.41.45.6.69h0l.05.07c.09.13.31.44.35.51s.26.41.41.68h0L82,87c.23.41.46.89.69,1.35l.08.16c.2.4.38.79.54,1.13l0,.17c.25.52.42.9.44.94h0c1.53,2.5,3.81,5.23,6.37,5.95a7.75,7.75,0,0,0,6.39-.95,6.85,6.85,0,0,0,1.58-1.26,6.21,6.21,0,0,0,1.57-2.86A5.1,5.1,0,0,0,99.27,88a5.81,5.81,0,0,0-.54-.85,1.9,1.9,0,0,0-1.14-.75h0l-.25,0a2.37,2.37,0,0,0-1.6.62,3.92,3.92,0,0,0-.87,1,2.4,2.4,0,0,0-.16.27h0a4.53,4.53,0,0,0-.37,1l0,.1a1.79,1.79,0,1,1-3.46-.87s0-.07,0-.1a8.63,8.63,0,0,1,.35-1.09,7.77,7.77,0,0,1,2.09-2.94l.21-.17a5.93,5.93,0,0,1,4-1.4,5.32,5.32,0,0,1,.88.12l.19,0h0A5.44,5.44,0,0,1,101.63,85,8.86,8.86,0,0,1,103.24,92.46Z"/></pattern></defs><title>background_green</title><rect class="cls-2" x="1280.78" y="1360" width="438.44" height="226"/><path class="cls-3" d="M1531.75,1405.92c0,.51,0,1,0,1.52a32.2,32.2,0,0,1-.55,4.49c-.09.48-.19.94-.31,1.42a26.33,26.33,0,0,1-.75,2.57c-3,9-9.65,15-13.2,17.63a49.33,49.33,0,0,0,8.85-19.26,45.37,45.37,0,0,0,.89-6.23,35.26,35.26,0,0,0-.68-10.85l-.09-.36-.38,0a20.22,20.22,0,0,0-8.72,2.74,33.1,33.1,0,0,0-4.3,2.91c-.28.22-.56.44-.83.67a48.18,48.18,0,0,0-4,3.79,71.33,71.33,0,0,0-6.54,8c-.33.48-.66.94-1,1.39-.31-.46-.64-.93-1-1.39a71.27,71.27,0,0,0-6.68-8.13,49.27,49.27,0,0,0-4-3.75l-.85-.68a31.86,31.86,0,0,0-4.3-2.87,20.15,20.15,0,0,0-8.57-2.66l-.37,0-.09.36a35.49,35.49,0,0,0-.68,10.88,46.5,46.5,0,0,0,.89,6.23,49.49,49.49,0,0,0,8.85,19.23c-3.55-2.67-10.16-8.6-13.2-17.66-.28-.82-.52-1.66-.74-2.53-.12-.49-.23-1-.32-1.47a31.76,31.76,0,0,1-.52-4.45,38.06,38.06,0,0,1,2.81-15.62h0a32.78,32.78,0,0,1,13.58,3.25,30,30,0,0,1,3.72,2.16c.55.38,1,.73,1.51,1.1a28.27,28.27,0,0,1,3.29,3,31.94,31.94,0,0,1,6.27,10.1l.42,1.06.42-1.06a31.8,31.8,0,0,1,6.15-10,29.53,29.53,0,0,1,3.28-3c.48-.38,1-.75,1.49-1.1a29.49,29.49,0,0,1,3.72-2.19,32.84,32.84,0,0,1,13.71-3.3h0A38.61,38.61,0,0,1,1531.75,1405.92Z"/><path class="cls-3" d="M1500.08,1374.51h0c-2,.82-11.67,5.6-10.51,21.8,1.16-3.89,4.08-11.22,10.33-14.47l.2-.11.21.11c6.24,3.25,9.17,10.58,10.32,14.47C1511.75,1380.11,1502.11,1375.33,1500.08,1374.51Z"/><path class="cls-3" d="M1543.16,1415.4a31.28,31.28,0,0,0-9.64-3.47q-.15.77-.33,1.53-.35,1.43-.81,2.76a17.58,17.58,0,0,1,6,1.88l.27.15-.09.3a34.19,34.19,0,0,1-5.43,9.87,45.08,45.08,0,0,1-16,13,51,51,0,0,1-9.14,2.13c-.64.1-1.29.17-1.94.24s-1.31.13-2,.17q-1.52.1-3.06.12h-1.82c-1,0-2.06-.06-3.08-.14-.65,0-1.32-.11-2-.19s-1.31-.15-2-.24a50.59,50.59,0,0,1-10.34-2.62,44.78,44.78,0,0,1-15-12.51,34.19,34.19,0,0,1-5.43-9.87l-.09-.3.27-.14a17.51,17.51,0,0,1,6.27-1.92c-.29-.88-.56-1.78-.79-2.72-.13-.52-.24-1-.35-1.58a30.49,30.49,0,0,0-10.36,3.79h0a1.16,1.16,0,0,1,0,.18,33.29,33.29,0,0,0,33,29.46h7.34c.5,0,1,0,1.52.06s1.32,0,2,0,1.11,0,1.67,0,1.21,0,1.8-.08h6.43a33.27,33.27,0,0,0,29.6-18.2,37.26,37.26,0,0,0,3.91-11.42C1543.52,1415.61,1543.36,1415.52,1543.16,1415.4Z"/><rect class="cls-3" x="1495.59" y="1447.02" width="9.3" height="9.3" rx="3.89" ry="3.89"/><path class="cls-3" d="M1530,1448.35a5.48,5.48,0,0,0-3.07-2.07h0l-.19,0a5.29,5.29,0,0,0-.89-.12,6,6,0,0,0-4,1.4l-.2.17a7.77,7.77,0,0,0-2.09,2.94,8.63,8.63,0,0,0-.35,1.09s0,.07,0,.1a1.79,1.79,0,1,0,3.46.87l0-.1a4.53,4.53,0,0,1,.37-1h0l.15-.27a4.17,4.17,0,0,1,.88-1,2.37,2.37,0,0,1,1.6-.62l.25,0h0a1.9,1.9,0,0,1,1.14.75,6.79,6.79,0,0,1,.54.85,5.1,5.1,0,0,1,.46,3.69,6.21,6.21,0,0,1-1.57,2.86,6.85,6.85,0,0,1-1.58,1.26,7.75,7.75,0,0,1-6.39.95c-2.56-.72-4.84-3.45-6.37-5.95h0s-.19-.42-.44-.94l0-.17c-.16-.34-.34-.73-.54-1.13l-.08-.16c-.23-.46-.47-.94-.69-1.35l-.14-.25h0c-.15-.27-.29-.5-.41-.68s-.26-.38-.35-.51l0-.07h0q-.29-.36-.6-.69c-.22-.23-.46-.45-.7-.66l-.14-.11-1.53.18-.58.06a4.5,4.5,0,0,1,.42.3,8.23,8.23,0,0,1,3.26,6.57v1.76a8.31,8.31,0,0,1-8.3,8.3h-1.77a8.31,8.31,0,0,1-8.3-8.3v-1.76a8.26,8.26,0,0,1,3.3-6.61l.42-.29-.57-.06-1.53-.19-.14.12a7.3,7.3,0,0,0-.71.65,8.24,8.24,0,0,0-.77.91l-.14.19a8.61,8.61,0,0,0-.81,1.38l-.44.91-.07.15c-.23.47-.45.92-.62,1.3l-.44.94h0c-1.53,2.5-3.81,5.23-6.38,6a7.73,7.73,0,0,1-6.38-1,6.55,6.55,0,0,1-3.15-4.12,5.25,5.25,0,0,1,1-4.54,2,2,0,0,1,1.14-.75h0l.26,0a2.45,2.45,0,0,1,1.59.62,3.82,3.82,0,0,1,.88,1,2.2,2.2,0,0,1,.15.26h0a4.59,4.59,0,0,1,.39,1l0,.1a1.79,1.79,0,0,0,3.56-.29,1.9,1.9,0,0,0-.1-.57.29.29,0,0,0,0-.09,7.78,7.78,0,0,0-2.44-4l-.21-.17a6,6,0,0,0-4-1.4,4.75,4.75,0,0,0-1.06.15h0a5.54,5.54,0,0,0-3.07,2.07,8.84,8.84,0,0,0-1.61,7.5,9.8,9.8,0,0,0,.66,1.91h0a10.42,10.42,0,0,0,4.18,4.49,12.27,12.27,0,0,0,6.14,1.87,8.64,8.64,0,0,0,3.47-.73,9.6,9.6,0,0,0,2.51-1.61l0,0a14.29,14.29,0,0,0,2.82-3.55l.5,2.16a9.41,9.41,0,0,0,9.09,7.24h3.43a9.35,9.35,0,0,0,9-6.92l.64-2.37.15.24c.23.38.47.76.73,1.12a13.05,13.05,0,0,0,2,2.26l0,0a9.6,9.6,0,0,0,2.51,1.61,8.18,8.18,0,0,0,1.26.44h0a8.65,8.65,0,0,0,2.21.29,9.39,9.39,0,0,0,1.5-.12,13.54,13.54,0,0,0,4.63-1.75,10.24,10.24,0,0,0,2.87-2.41h0a10.18,10.18,0,0,0,1.31-2.07h0a10,10,0,0,0,.67-1.9A8.89,8.89,0,0,0,1530,1448.35Z"/><path class="cls-3" d="M1679.31,1515.53c0,.51,0,1,0,1.52a30.75,30.75,0,0,1-.54,4.49c-.09.48-.19.94-.31,1.42-.21.88-.47,1.74-.75,2.57-3.05,9-9.65,15-13.2,17.63a49.33,49.33,0,0,0,8.85-19.26,45.37,45.37,0,0,0,.89-6.23,35.26,35.26,0,0,0-.68-10.85l-.1-.36-.37,0a20.22,20.22,0,0,0-8.72,2.74,33.1,33.1,0,0,0-4.3,2.91c-.28.22-.56.44-.83.67a46.68,46.68,0,0,0-4,3.79,71.33,71.33,0,0,0-6.54,8c-.34.48-.66.94-1,1.39-.31-.46-.64-.93-1-1.39a71.27,71.27,0,0,0-6.68-8.13,49.27,49.27,0,0,0-4-3.75l-.85-.68a31.86,31.86,0,0,0-4.3-2.87,20.15,20.15,0,0,0-8.57-2.66l-.37,0-.09.36a35.49,35.49,0,0,0-.68,10.88,44.93,44.93,0,0,0,.89,6.23,49.49,49.49,0,0,0,8.85,19.23c-3.55-2.67-10.16-8.6-13.2-17.66-.28-.82-.53-1.66-.74-2.53-.12-.49-.23-1-.32-1.47a31.76,31.76,0,0,1-.52-4.45,38,38,0,0,1,2.8-15.62h0a32.72,32.72,0,0,1,13.57,3.25,29.4,29.4,0,0,1,3.73,2.16c.55.38,1,.73,1.51,1.1a28.27,28.27,0,0,1,3.29,3,31.94,31.94,0,0,1,6.27,10.1l.42,1.06.42-1.06a31.8,31.8,0,0,1,6.15-10,30.34,30.34,0,0,1,3.27-3c.48-.38,1-.75,1.49-1.1a30.33,30.33,0,0,1,3.73-2.19,32.83,32.83,0,0,1,13.7-3.3h0A38.42,38.42,0,0,1,1679.31,1515.53Z"/><path class="cls-3" d="M1647.64,1484.12h-.05c-2,.82-11.67,5.6-10.51,21.8,1.16-3.89,4.08-11.22,10.32-14.47l.21-.11.21.11c6.24,3.25,9.17,10.58,10.32,14.47C1659.31,1489.72,1649.67,1484.94,1647.64,1484.12Z"/><path class="cls-3" d="M1690.72,1525a31.28,31.28,0,0,0-9.64-3.47q-.15.76-.33,1.53-.35,1.42-.81,2.76a17.58,17.58,0,0,1,6,1.88l.27.15-.09.3a34.19,34.19,0,0,1-5.43,9.87,45.08,45.08,0,0,1-16,13,51,51,0,0,1-9.14,2.13c-.64.1-1.29.17-1.94.24s-1.31.13-2,.17q-1.52.11-3.06.12h-1.82c-1,0-2.06-.06-3.08-.14-.66,0-1.32-.11-2-.19s-1.31-.15-2-.24a50.59,50.59,0,0,1-10.34-2.62,44.78,44.78,0,0,1-15-12.51,34.19,34.19,0,0,1-5.43-9.87l-.09-.3.27-.14a17.51,17.51,0,0,1,6.27-1.92c-.3-.88-.56-1.78-.79-2.72-.13-.52-.25-1-.35-1.58a30.62,30.62,0,0,0-10.37,3.79h0a1.16,1.16,0,0,0,0,.18,33.28,33.28,0,0,0,33,29.45h7.35c.5,0,1,.06,1.52.07s1.32,0,2,0,1.11,0,1.66,0,1.22,0,1.81-.08h6.43a33.3,33.3,0,0,0,29.6-18.2,37,37,0,0,0,3.9-11.42A5,5,0,0,0,1690.72,1525Z"/><rect class="cls-3" x="1643.15" y="1556.63" width="9.3" height="9.3" rx="3.89" ry="3.89"/><path class="cls-3" d="M1677.53,1558a5.48,5.48,0,0,0-3.07-2.07h0l-.19,0a5.29,5.29,0,0,0-.89-.12,6,6,0,0,0-4,1.4l-.2.17a7.77,7.77,0,0,0-2.09,2.94,8.63,8.63,0,0,0-.35,1.09s0,.07,0,.1a2.13,2.13,0,0,0-.1.56,1.79,1.79,0,0,0,3.55.31.42.42,0,0,0,0-.1,4.53,4.53,0,0,1,.37-1h0l.15-.27a4,4,0,0,1,.88-1,2.37,2.37,0,0,1,1.6-.62l.25,0h0a1.93,1.93,0,0,1,1.14.75,6.79,6.79,0,0,1,.54.85,5.15,5.15,0,0,1,.46,3.69,6.21,6.21,0,0,1-1.57,2.86,6.85,6.85,0,0,1-1.58,1.26,7.75,7.75,0,0,1-6.39,1c-2.56-.72-4.84-3.45-6.37-6h0s-.19-.42-.44-.94l0-.17c-.16-.34-.34-.73-.54-1.13l-.08-.16c-.23-.46-.47-.94-.69-1.35l-.14-.25h0c-.15-.27-.29-.5-.41-.68s-.26-.38-.35-.51l0-.07h0q-.29-.36-.6-.69c-.23-.23-.46-.45-.7-.66l-.14-.11-1.53.18-.58.06.42.3a8.23,8.23,0,0,1,3.26,6.57v1.76a8.31,8.31,0,0,1-8.3,8.3H1647a8.31,8.31,0,0,1-8.3-8.3v-1.76a8.26,8.26,0,0,1,3.3-6.61l.42-.29-.57-.06-1.53-.19-.15.12a8.55,8.55,0,0,0-.7.65,8.24,8.24,0,0,0-.77.91l-.14.19a8.61,8.61,0,0,0-.81,1.38l-.44.91-.07.15c-.23.47-.45.92-.62,1.3-.26.53-.43.91-.44.94h0c-1.53,2.5-3.81,5.23-6.38,6a7.73,7.73,0,0,1-6.38-1,6.55,6.55,0,0,1-3.15-4.12,5.25,5.25,0,0,1,1-4.54,1.93,1.93,0,0,1,1.14-.75h0l.26,0a2.45,2.45,0,0,1,1.59.62,3.82,3.82,0,0,1,.88,1l.15.26h0a4.59,4.59,0,0,1,.39,1l0,.1a1.79,1.79,0,0,0,3.56-.29,2.28,2.28,0,0,0-.1-.57.29.29,0,0,0,0-.09,7.78,7.78,0,0,0-2.44-4l-.21-.17a6,6,0,0,0-4-1.4,4.75,4.75,0,0,0-1.06.15h0a5.54,5.54,0,0,0-3.07,2.07,8.84,8.84,0,0,0-1.61,7.5,9.19,9.19,0,0,0,.66,1.91h0a10.42,10.42,0,0,0,4.18,4.49,12.27,12.27,0,0,0,6.14,1.87,8.64,8.64,0,0,0,3.47-.73,9.6,9.6,0,0,0,2.51-1.61v0a14.1,14.1,0,0,0,2.83-3.55l.49,2.16a9.43,9.43,0,0,0,9.1,7.24h3.43a9.35,9.35,0,0,0,9-6.92l.64-2.37.15.24c.23.38.47.76.73,1.12a13.05,13.05,0,0,0,2,2.26l0,0a9.71,9.71,0,0,0,2.5,1.61,8.69,8.69,0,0,0,1.27.44h0a8.65,8.65,0,0,0,2.21.29,9.39,9.39,0,0,0,1.5-.12,13.54,13.54,0,0,0,4.63-1.75,10.53,10.53,0,0,0,2.87-2.41h0a10,10,0,0,0,1.31-2.08h0a9.65,9.65,0,0,0,.67-1.89A8.89,8.89,0,0,0,1677.53,1558Z"/><path class="cls-3" d="M1384.19,1515.53c0,.51,0,1,0,1.52a30.76,30.76,0,0,1-.55,4.49,14.42,14.42,0,0,1-.31,1.42,26.33,26.33,0,0,1-.75,2.57c-3,9-9.65,15-13.2,17.63a49.33,49.33,0,0,0,8.85-19.26,43.88,43.88,0,0,0,.89-6.23,35.26,35.26,0,0,0-.68-10.85l-.09-.36-.38,0a20.26,20.26,0,0,0-8.72,2.74,33.8,33.8,0,0,0-4.3,2.91c-.28.22-.56.44-.83.67a49.78,49.78,0,0,0-4,3.79,72.45,72.45,0,0,0-6.54,8l-1,1.39c-.31-.46-.63-.93-1-1.39a70.23,70.23,0,0,0-6.68-8.13,49.27,49.27,0,0,0-4-3.75l-.85-.68a31.86,31.86,0,0,0-4.3-2.87,20.15,20.15,0,0,0-8.57-2.66l-.36,0-.1.36a35.49,35.49,0,0,0-.68,10.88,46.5,46.5,0,0,0,.89,6.23,49.49,49.49,0,0,0,8.85,19.23c-3.55-2.67-10.16-8.6-13.2-17.66-.28-.82-.52-1.66-.74-2.53-.12-.49-.22-1-.32-1.47a31.76,31.76,0,0,1-.52-4.45,38.06,38.06,0,0,1,2.81-15.62h0a32.78,32.78,0,0,1,13.57,3.25,29.29,29.29,0,0,1,3.72,2.16c.55.38,1,.73,1.51,1.1a28.27,28.27,0,0,1,3.29,3,31.94,31.94,0,0,1,6.27,10.1l.42,1.06.42-1.06a31.8,31.8,0,0,1,6.15-10,29.53,29.53,0,0,1,3.28-3c.48-.38,1-.75,1.49-1.1a29.49,29.49,0,0,1,3.72-2.19,32.84,32.84,0,0,1,13.71-3.3h0A38.61,38.61,0,0,1,1384.19,1515.53Z"/><path class="cls-3" d="M1352.52,1484.12h0c-2,.82-11.67,5.6-10.51,21.8,1.16-3.89,4.09-11.22,10.33-14.47l.2-.11.21.11c6.24,3.25,9.17,10.58,10.32,14.47C1364.19,1489.72,1354.55,1484.94,1352.52,1484.12Z"/><path class="cls-3" d="M1395.6,1525a31.28,31.28,0,0,0-9.64-3.47q-.15.76-.33,1.53-.35,1.42-.81,2.76a17.58,17.58,0,0,1,6,1.88l.27.15-.09.3a34.19,34.19,0,0,1-5.43,9.87,45.08,45.08,0,0,1-16,13,51,51,0,0,1-9.14,2.13c-.64.1-1.29.17-1.94.24s-1.31.13-2,.17q-1.52.11-3.06.12h-1.82c-1,0-2.06-.06-3.08-.14-.65,0-1.31-.11-2-.19s-1.31-.15-1.95-.24a50.59,50.59,0,0,1-10.34-2.62,44.89,44.89,0,0,1-15-12.51,34.19,34.19,0,0,1-5.43-9.87l-.09-.3.27-.14a17.51,17.51,0,0,1,6.27-1.92c-.29-.88-.56-1.78-.79-2.72-.13-.52-.24-1-.35-1.58a30.49,30.49,0,0,0-10.36,3.79h0l0,.18a33.29,33.29,0,0,0,33,29.46h7.34c.5,0,1,0,1.52.06s1.32,0,2,0,1.11,0,1.67,0,1.21,0,1.8-.08h6.43a33.27,33.27,0,0,0,29.6-18.2,37,37,0,0,0,3.91-11.42C1396,1525.22,1395.8,1525.13,1395.6,1525Z"/><rect class="cls-3" x="1348.03" y="1556.63" width="9.3" height="9.3" rx="3.89" ry="3.89"/><path class="cls-3" d="M1382.41,1558a5.44,5.44,0,0,0-3.07-2.07h0l-.19,0a5.32,5.32,0,0,0-.88-.12,5.93,5.93,0,0,0-4,1.4l-.21.17a7.77,7.77,0,0,0-2.09,2.94,8.63,8.63,0,0,0-.35,1.09s0,.07,0,.1a1.79,1.79,0,1,0,3.46.87l0-.1a4.53,4.53,0,0,1,.37-1h0a2.4,2.4,0,0,1,.16-.27,3.92,3.92,0,0,1,.87-1,2.37,2.37,0,0,1,1.6-.62l.25,0h0a1.9,1.9,0,0,1,1.14.75,5.81,5.81,0,0,1,.54.85,5.1,5.1,0,0,1,.46,3.69,6.21,6.21,0,0,1-1.57,2.86,6.85,6.85,0,0,1-1.58,1.26,7.75,7.75,0,0,1-6.39,1c-2.56-.72-4.84-3.45-6.37-6h0s-.19-.42-.44-.94l-.05-.17c-.16-.34-.34-.73-.54-1.13l-.08-.16c-.23-.46-.46-.94-.69-1.35l-.14-.25h0c-.15-.27-.29-.5-.41-.68s-.26-.38-.35-.51l-.05-.07h0q-.28-.36-.6-.69c-.22-.23-.46-.45-.7-.66l-.14-.11-1.53.18-.58.06a4.5,4.5,0,0,1,.42.3,8.23,8.23,0,0,1,3.26,6.57v1.76a8.31,8.31,0,0,1-8.3,8.3h-1.76a8.29,8.29,0,0,1-8.3-8.3v-1.76a8.2,8.2,0,0,1,3.3-6.61l.41-.29-.57-.06-1.53-.19-.14.12a7.3,7.3,0,0,0-.71.65,9.5,9.5,0,0,0-.77.91l-.14.19a8.61,8.61,0,0,0-.81,1.38l-.44.91-.07.15c-.23.47-.45.92-.62,1.3l-.44.94h0c-1.53,2.5-3.81,5.23-6.38,6a7.73,7.73,0,0,1-6.38-1,6.55,6.55,0,0,1-3.15-4.12,5.25,5.25,0,0,1,1-4.54,2,2,0,0,1,1.15-.75h0l.25,0a2.45,2.45,0,0,1,1.59.62,3.82,3.82,0,0,1,.88,1,1.35,1.35,0,0,1,.15.26h0a4.59,4.59,0,0,1,.39,1l0,.1a1.79,1.79,0,0,0,3.56-.29,1.9,1.9,0,0,0-.1-.57s0-.06,0-.09a7.86,7.86,0,0,0-2.45-4l-.21-.17a5.93,5.93,0,0,0-4-1.4,4.75,4.75,0,0,0-1.06.15h0a5.54,5.54,0,0,0-3.07,2.07,8.87,8.87,0,0,0-1.61,7.5,9.8,9.8,0,0,0,.66,1.91h0a10.38,10.38,0,0,0,4.19,4.49,12.23,12.23,0,0,0,6.13,1.87,8.6,8.6,0,0,0,3.47-.73,9.6,9.6,0,0,0,2.51-1.61l0,0a14.29,14.29,0,0,0,2.82-3.55l.5,2.16a9.41,9.41,0,0,0,9.09,7.24h3.43a9.35,9.35,0,0,0,9-6.92l.64-2.37.16.24a13.3,13.3,0,0,0,.72,1.12,13.05,13.05,0,0,0,2,2.26l0,0a9.6,9.6,0,0,0,2.51,1.61,8.18,8.18,0,0,0,1.26.44h0a8.65,8.65,0,0,0,2.21.29,9.61,9.61,0,0,0,1.51-.12,13.57,13.57,0,0,0,4.62-1.75,10.24,10.24,0,0,0,2.87-2.41h0a10.68,10.68,0,0,0,1.32-2.07h0a10,10,0,0,0,.66-1.9A8.86,8.86,0,0,0,1382.41,1558Z"/><rect class="cls-4" width="3000" height="3000"/></svg>