<svg xmlns="http://www.w3.org/2000/svg" width="233.903" height="71.466" viewBox="0 0 233.903 71.466">
  <g id="Flor_h" data-name="Flor h" transform="translate(-0.13)">
    <path id="Trazado_19" data-name="Trazado 19" d="M541.88,204.793h2.964v-7.91h6.237v-2.521h-6.237V189.1h7.681V186.58H541.88Z" transform="translate(-463.266 -159.55)" fill="#dae3e2"/>
    <rect id="Rectángulo_94" data-name="Rectángulo 94" width="2.964" height="19.295" transform="translate(91.39 25.946)" fill="#dae3e2"/>
    <path id="Trazado_20" data-name="Trazado 20" d="M827.574,434.825a8.113,8.113,0,0,0-7.462,0,6.707,6.707,0,0,0-2.651,2.619,7.776,7.776,0,0,0-.969,3.911,8,8,0,0,0,.942,3.925,6.65,6.65,0,0,0,2.608,2.634,7.5,7.5,0,0,0,3.7.923,7.777,7.777,0,0,0,3.758-.921,6.913,6.913,0,0,0,2.7-2.629,8.323,8.323,0,0,0,.028-7.842A6.741,6.741,0,0,0,827.574,434.825Zm-3.833,11.332a4.387,4.387,0,0,1-2.124-.526,3.805,3.805,0,0,1-1.528-1.594,5.687,5.687,0,0,1-.58-2.69,5.465,5.465,0,0,1,.593-2.664,3.878,3.878,0,0,1,1.553-1.594,4.673,4.673,0,0,1,4.316,0,4.012,4.012,0,0,1,1.594,1.594,5.35,5.35,0,0,1,.616,2.66,5.243,5.243,0,0,1-.627,2.655,4.121,4.121,0,0,1-1.631,1.612,4.588,4.588,0,0,1-2.185.546Z" transform="translate(-719.724 -403.36)" fill="#dae3e2"/>
    <path id="Trazado_21" data-name="Trazado 21" d="M938.617,434.44h0a4.723,4.723,0,0,0-1.242,1.037v-1.485H934.41v14.461h2.966v-7.835c0-2.593,1.159-3.852,3.549-3.852h.937V433.74h-.329A5.759,5.759,0,0,0,938.617,434.44Z" transform="translate(-820.561 -403.21)" fill="#dae3e2"/>
    <path id="Trazado_22" data-name="Trazado 22" d="M1052.206,408.75a6.084,6.084,0,0,0-1.646-1.259,6.672,6.672,0,0,0-3.171-.781,6.953,6.953,0,0,0-3.551.926,6.6,6.6,0,0,0-2.493,2.608,8.068,8.068,0,0,0-.9,3.871,8.246,8.246,0,0,0,.9,3.881,6.651,6.651,0,0,0,6.021,3.622,6.424,6.424,0,0,0,3.31-.839,6.082,6.082,0,0,0,1.531-1.266V421.4h2.99V402.1h-2.99Zm-.593,2.829a5.282,5.282,0,0,1,.593,2.563,5.36,5.36,0,0,1-.594,2.576,4.132,4.132,0,0,1-1.585,1.659,4.378,4.378,0,0,1-2.206.579,4.316,4.316,0,0,1-2.193-.572,4.16,4.16,0,0,1-1.575-1.666,5.415,5.415,0,0,1-.594-2.608,5.279,5.279,0,0,1,.594-2.563,4.1,4.1,0,0,1,1.572-1.634,4.55,4.55,0,0,1,4.4.012A4.173,4.173,0,0,1,1051.613,411.579Z" transform="translate(-911.232 -376.154)" fill="#dae3e2"/>
    <path id="Trazado_23" data-name="Trazado 23" d="M1169.6,434.811a7.372,7.372,0,0,0-3.659-.9,7.593,7.593,0,0,0-3.748.911,6.373,6.373,0,0,0-2.55,2.608,8.2,8.2,0,0,0-.9,3.911,8.08,8.08,0,0,0,.927,3.923,6.621,6.621,0,0,0,2.573,2.634,7.4,7.4,0,0,0,3.7.924,7.07,7.07,0,0,0,4.346-1.313,6.266,6.266,0,0,0,2.351-3.41l.117-.417H1169.6l-.077.22a3.318,3.318,0,0,1-1.285,1.689,3.986,3.986,0,0,1-2.309.633,4.131,4.131,0,0,1-2.886-1.062,4.013,4.013,0,0,1-1.266-2.608h11.051l.031-.29a13.687,13.687,0,0,0,.078-1.42,7.276,7.276,0,0,0-.869-3.546A6.3,6.3,0,0,0,1169.6,434.811Zm-3.767,1.7a4.677,4.677,0,0,1,2.073.458,3.491,3.491,0,0,1,1.449,1.314,3.749,3.749,0,0,1,.523,1.753h-8.056a4.06,4.06,0,0,1,1.257-2.5,3.941,3.941,0,0,1,2.76-1.024Z" transform="translate(-1012.392 -403.356)" fill="#dae3e2"/>
    <path id="Trazado_24" data-name="Trazado 24" d="M1317.869,410.27l-6.629,18.109h3.135l1.42-3.9h7.244l1.42,3.9h3.134l-6.6-18.109Zm4.274,11.687h-5.451l2.725-7.567Z" transform="translate(-1142.799 -383.14)" fill="#dae3e2"/>
    <path id="Trazado_25" data-name="Trazado 25" d="M1443.646,435.918a5.987,5.987,0,0,0-1.523-1.221h0a6.569,6.569,0,0,0-3.321-.824,6.893,6.893,0,0,0-3.525.926,6.6,6.6,0,0,0-2.493,2.608,8.8,8.8,0,0,0,0,7.753,6.651,6.651,0,0,0,6.019,3.622,6.341,6.341,0,0,0,3.313-.853,6.262,6.262,0,0,0,1.53-1.265v1.864a4.158,4.158,0,0,1-1.105,3.09,3.931,3.931,0,0,1-2.876,1.105,4.873,4.873,0,0,1-2.686-.716,3.266,3.266,0,0,1-1.436-1.846l-.071-.233h-2.906l.057.377a5.36,5.36,0,0,0,2.291,3.722,8.088,8.088,0,0,0,4.752,1.344,7.5,7.5,0,0,0,3.67-.869,6.121,6.121,0,0,0,2.45-2.434,7.218,7.218,0,0,0,.852-3.522V434.1h-2.99Zm-.591,2.829a5.3,5.3,0,0,1,.592,2.563,5.358,5.358,0,0,1-.593,2.576,4.132,4.132,0,0,1-1.594,1.659,4.383,4.383,0,0,1-2.208.579,4.311,4.311,0,0,1-2.192-.572,4.162,4.162,0,0,1-1.569-1.666,5.415,5.415,0,0,1-.594-2.608,5.282,5.282,0,0,1,.594-2.563,4.091,4.091,0,0,1,1.572-1.634,4.551,4.551,0,0,1,4.4.012A4.183,4.183,0,0,1,1443.055,438.747Z" transform="translate(-1245.964 -403.322)" fill="#dae3e2"/>
    <path id="Trazado_26" data-name="Trazado 26" d="M1565.347,443.381a4.359,4.359,0,0,1-.975,3.076,3.469,3.469,0,0,1-2.676,1.029,3.413,3.413,0,0,1-2.608-.992,4.044,4.044,0,0,1-.949-2.91V435.47H1555.2v8.414a6.922,6.922,0,0,0,.79,3.41,5.214,5.214,0,0,0,2.173,2.134,6.621,6.621,0,0,0,3.065.7,6.074,6.074,0,0,0,2.753-.627,4.963,4.963,0,0,0,1.36-.991v1.417h2.966v-14.46h-2.966Z" transform="translate(-1351.416 -404.689)" fill="#dae3e2"/>
    <path id="Trazado_27" data-name="Trazado 27" d="M1673.943,434.118v1.814a6.01,6.01,0,0,0-1.508-1.22,6.552,6.552,0,0,0-3.332-.824,6.893,6.893,0,0,0-3.525.926,6.6,6.6,0,0,0-2.493,2.608,8.07,8.07,0,0,0-.9,3.871,8.239,8.239,0,0,0,.9,3.881,6.615,6.615,0,0,0,5.995,3.622,6.476,6.476,0,0,0,3.322-.839,6.149,6.149,0,0,0,1.546-1.258v1.88h2.987V434.118Zm0,7.206a5.362,5.362,0,0,1-.594,2.576,4.131,4.131,0,0,1-1.585,1.659,4.382,4.382,0,0,1-2.208.579,4.311,4.311,0,0,1-2.192-.572,4.159,4.159,0,0,1-1.575-1.666,5.418,5.418,0,0,1-.594-2.608,5.281,5.281,0,0,1,.594-2.563,4.091,4.091,0,0,1,1.572-1.634,4.55,4.55,0,0,1,4.4.012,4.183,4.183,0,0,1,1.594,1.649A5.3,5.3,0,0,1,1673.943,441.324Z" transform="translate(-1442.9 -403.336)" fill="#dae3e2"/>
    <path id="Trazado_28" data-name="Trazado 28" d="M961.348,403.81V393.26h-.93v4.8h-5.937v-4.8h-.932V403.81h.932v-5h5.937v5Z" transform="translate(-815.297 -336.288)" fill="#dae3e2"/>
    <path id="Trazado_29" data-name="Trazado 29" d="M1177.345,639.5a3.753,3.753,0,0,0,1.486-1.479,4.9,4.9,0,0,0,.007-4.465,3.732,3.732,0,0,0-1.47-1.472,4.288,4.288,0,0,0-2.1-.519,4.242,4.242,0,0,0-2.092.519,3.8,3.8,0,0,0-1.472,1.472,4.48,4.48,0,0,0-.54,2.237,4.54,4.54,0,0,0,.533,2.237,3.758,3.758,0,0,0,1.457,1.472h0a4.209,4.209,0,0,0,2.083.519A4.333,4.333,0,0,0,1177.345,639.5Zm-4.807-1.815a4.379,4.379,0,0,1,0-3.785,2.853,2.853,0,0,1,1.152-1.159,3.383,3.383,0,0,1,3.125,0,2.9,2.9,0,0,1,1.159,1.159,3.818,3.818,0,0,1,.435,1.893,3.766,3.766,0,0,1-.446,1.893,2.946,2.946,0,0,1-1.166,1.159,3.275,3.275,0,0,1-1.563.382,3.241,3.241,0,0,1-1.554-.382A2.853,2.853,0,0,1,1172.538,637.687Z" transform="translate(-1023.014 -572.378)" fill="#dae3e2"/>
    <path id="Trazado_30" data-name="Trazado 30" d="M1238.152,627.789a2.3,2.3,0,0,0,1.634.508h1.076v-.778h-.908a1.479,1.479,0,0,1-1.075-.31,1.549,1.549,0,0,1-.31-1.105V620.85h2.293v-.762h-2.287V618h-.946v2.095h-1.159v.762h1.159v5.254A2.239,2.239,0,0,0,1238.152,627.789Z" transform="translate(-1078.861 -560.776)" fill="#dae3e2"/>
    <path id="Trazado_31" data-name="Trazado 31" d="M1284.417,635.363a3.953,3.953,0,0,0-.472-1.917,3.543,3.543,0,0,0-1.352-1.372,4.019,4.019,0,0,0-2.051-.51,4.243,4.243,0,0,0-2.092.51,3.565,3.565,0,0,0-1.426,1.47,4.753,4.753,0,0,0-.511,2.247,4.648,4.648,0,0,0,.519,2.237,3.673,3.673,0,0,0,1.434,1.472,4.165,4.165,0,0,0,2.076.519,3.95,3.95,0,0,0,2.473-.758,3.476,3.476,0,0,0,1.259-1.87h-.986a2.452,2.452,0,0,1-.953,1.347,3.031,3.031,0,0,1-1.792.519,3.267,3.267,0,0,1-1.5-.352,2.778,2.778,0,0,1-1.113-1.043,3.425,3.425,0,0,1-.469-1.654v-.074h6.938C1284.406,635.946,1284.417,635.683,1284.417,635.363Zm-.946.039h-6.019v-.074a3.134,3.134,0,0,1,.956-2.2,2.993,2.993,0,0,1,2.081-.784,3.311,3.311,0,0,1,1.5.345,2.608,2.608,0,0,1,1.092,1.014,3.045,3.045,0,0,1,.384,1.628Z" transform="translate(-1113.102 -572.374)" fill="#dae3e2"/>
    <rect id="Rectángulo_95" data-name="Rectángulo 95" width="0.93" height="11.177" transform="translate(173.413 56.345)" fill="#dae3e2"/>
    <path id="Trazado_32" data-name="Trazado 32" d="M262.459,325.805c0,.391-.01.782-.028,1.168a23.778,23.778,0,0,1-.417,3.457c-.068.366-.145.724-.238,1.092q-.251,1.014-.579,1.977a29.309,29.309,0,0,1-10.153,13.56,38.086,38.086,0,0,0,6.809-14.817,34.888,34.888,0,0,0,.684-4.792,27.209,27.209,0,0,0-.527-8.347l-.071-.272-.29.016a15.531,15.531,0,0,0-6.706,2.108,25.069,25.069,0,0,0-3.307,2.235c-.214.169-.435.34-.637.516a37.315,37.315,0,0,0-3.108,2.918,53.963,53.963,0,0,0-5.03,6.14q-.39.548-.74,1.068c-.242-.356-.49-.714-.742-1.068a54.505,54.505,0,0,0-5.136-6.254,37.271,37.271,0,0,0-3.1-2.886c-.213-.181-.435-.355-.65-.523a25.027,25.027,0,0,0-3.307-2.209,15.487,15.487,0,0,0-6.593-2.044l-.283-.016-.071.272a27.342,27.342,0,0,0-.527,8.375,36.32,36.32,0,0,0,.687,4.789,38.038,38.038,0,0,0,6.809,14.79,29.283,29.283,0,0,1-10.157-13.583q-.319-.943-.566-1.946c-.093-.375-.174-.752-.248-1.133a24.043,24.043,0,0,1-.4-3.422,29.212,29.212,0,0,1,2.156-12.013h0a25.168,25.168,0,0,1,10.439,2.5,22.8,22.8,0,0,1,2.867,1.66c.42.29.8.564,1.159.843a22.244,22.244,0,0,1,2.528,2.309,24.553,24.553,0,0,1,4.827,7.769l.323.814.322-.814a24.368,24.368,0,0,1,4.733-7.665,22.186,22.186,0,0,1,2.525-2.341c.369-.29.755-.579,1.146-.846a23.221,23.221,0,0,1,2.864-1.682,25.213,25.213,0,0,1,10.544-2.543h0A29.669,29.669,0,0,1,262.459,325.805Z" transform="translate(-204.355 -301.638)" fill="#3cbd9f"/>
    <path id="Trazado_33" data-name="Trazado 33" d="M333.08,223.009l-.02-.009-.02.009c-1.562.63-8.973,4.3-8.079,16.764.888-2.987,3.139-8.631,7.94-11.129l.159-.084.161.084c4.8,2.5,7.051,8.142,7.939,11.129C342.055,227.313,334.643,223.639,333.08,223.009Z" transform="translate(-299.339 -223)" fill="#3cbd9f"/>
    <path id="Trazado_34" data-name="Trazado 34" d="M216.191,424.163a23.947,23.947,0,0,0-7.417-2.671q-.11.591-.255,1.173-.265,1.1-.617,2.127a13.459,13.459,0,0,1,4.61,1.449l.209.112-.068.229a26.3,26.3,0,0,1-4.178,7.593A34.633,34.633,0,0,1,196.159,444.2a39.1,39.1,0,0,1-7.028,1.64q-.742.107-1.5.183c-.5.052-1.007.1-1.515.127-.775.055-1.559.09-2.35.1h-1.4c-.8-.017-1.585-.052-2.367-.109-.506-.041-1.014-.084-1.51-.145s-1.005-.12-1.5-.191a38.7,38.7,0,0,1-7.953-2.009,34.48,34.48,0,0,1-11.53-9.625,26.262,26.262,0,0,1-4.18-7.593l-.067-.229.206-.112a13.543,13.543,0,0,1,4.821-1.472q-.339-1.014-.607-2.1c-.1-.4-.188-.805-.267-1.215a23.51,23.51,0,0,0-7.968,2.918.009.009,0,0,0-.009.007c.009.045.016.091.028.138a25.6,25.6,0,0,0,25.358,22.659h5.65c.385.023.776.039,1.168.051.5.016,1.014.025,1.517.025.435,0,.855,0,1.281-.02.466-.009.932-.028,1.391-.055h4.943a25.6,25.6,0,0,0,22.768-14,28.461,28.461,0,0,0,3.006-8.786C216.465,424.326,216.344,424.253,216.191,424.163Z" transform="translate(-149.31 -392.7)" fill="#289e87"/>
    <rect id="Rectángulo_96" data-name="Rectángulo 96" width="7.154" height="7.154" rx="3.577" transform="translate(30.289 55.78)" fill="#289e87"/>
    <path id="Trazado_35" data-name="Trazado 35" d="M263.335,604.111a4.232,4.232,0,0,0-2.36-1.594h0c-.045-.012-.091-.022-.145-.03a3.833,3.833,0,0,0-.682-.086,4.577,4.577,0,0,0-3.054,1.075c-.054.042-.106.085-.156.132a5.952,5.952,0,0,0-1.607,2.26,6.153,6.153,0,0,0-.274.837.458.458,0,0,1-.014.075,1.4,1.4,0,0,0-.071.435,1.376,1.376,0,0,0,2.731.236c.009-.026.017-.052.025-.08a3.385,3.385,0,0,1,.29-.776h0a1.891,1.891,0,0,1,.116-.2,3.042,3.042,0,0,1,.675-.768,1.845,1.845,0,0,1,1.228-.472,1.106,1.106,0,0,1,.194.026h0a1.5,1.5,0,0,1,.878.579,5.183,5.183,0,0,1,.416.652,3.933,3.933,0,0,1,.349,2.842,4.819,4.819,0,0,1-1.205,2.2,5.305,5.305,0,0,1-1.218.963,5.947,5.947,0,0,1-4.911.735c-1.972-.555-3.728-2.657-4.9-4.579h0c-.012-.027-.145-.319-.339-.724l-.036-.13c-.122-.262-.265-.562-.417-.869l-.058-.119c-.177-.358-.361-.724-.533-1.039-.036-.067-.072-.13-.106-.193h0c-.116-.206-.223-.387-.317-.526-.032-.049-.2-.29-.272-.393l-.035-.049h0q-.219-.278-.465-.535a7.147,7.147,0,0,0-.537-.506l-.106-.088c-.365.048-.753.094-1.175.145l-.446.043a3.687,3.687,0,0,1,.323.233,6.329,6.329,0,0,1,2.5,5.053v1.355a6.392,6.392,0,0,1-6.384,6.384h-1.356a6.392,6.392,0,0,1-6.384-6.384v-1.355a6.345,6.345,0,0,1,2.538-5.088c.1-.078.21-.154.319-.226l-.435-.044c-.382-.042-.778-.091-1.181-.145l-.11.09c-.188.159-.371.329-.542.5a6.841,6.841,0,0,0-.6.7,1.635,1.635,0,0,0-.109.145,6.961,6.961,0,0,0-.621,1.058l-.335.7-.058.119c-.177.359-.343.708-.477,1-.194.411-.327.7-.339.724h0c-1.175,1.922-2.931,4.024-4.9,4.579a5.948,5.948,0,0,1-4.911-.735,5.046,5.046,0,0,1-2.424-3.165,4.043,4.043,0,0,1,.765-3.494,1.5,1.5,0,0,1,.878-.579h0a1.119,1.119,0,0,1,.194-.026,1.874,1.874,0,0,1,1.229.472,3.042,3.042,0,0,1,.675.768c.041.065.08.133.116.2h0a3.389,3.389,0,0,1,.3.777.733.733,0,0,0,.025.08,1.376,1.376,0,0,0,2.735-.226,1.4,1.4,0,0,0-.071-.435.346.346,0,0,0-.014-.075,6.03,6.03,0,0,0-1.883-3.1c-.051-.046-.1-.09-.156-.132a4.576,4.576,0,0,0-3.054-1.075,3.977,3.977,0,0,0-.82.116h0a4.232,4.232,0,0,0-2.36,1.594,6.8,6.8,0,0,0-1.239,5.766,7.333,7.333,0,0,0,.511,1.468h0a7.949,7.949,0,0,0,3.216,3.46,9.477,9.477,0,0,0,4.718,1.434,6.62,6.62,0,0,0,2.673-.558,7.461,7.461,0,0,0,1.927-1.243l.013-.013a11.082,11.082,0,0,0,2.173-2.728l.381,1.656a7.244,7.244,0,0,0,7,5.57h2.634a7.2,7.2,0,0,0,6.936-5.323l.488-1.821.12.185c.171.29.358.58.558.859a10.163,10.163,0,0,0,1.541,1.738l.013.013a7.462,7.462,0,0,0,1.927,1.243,6.886,6.886,0,0,0,.975.34h0a6.641,6.641,0,0,0,1.7.217,7.379,7.379,0,0,0,1.159-.094,10.411,10.411,0,0,0,3.561-1.34,8.056,8.056,0,0,0,2.2-1.859h0a7.659,7.659,0,0,0,1.014-1.594h0a7.335,7.335,0,0,0,.51-1.46A6.821,6.821,0,0,0,263.335,604.111Z" transform="translate(-206.603 -547.307)" fill="#289e87"/>
    <line id="Línea_27" data-name="Línea 27" x2="19.334" transform="translate(115.572 61.957)" fill="#7a8482"/>
    <rect id="Rectángulo_97" data-name="Rectángulo 97" width="19.333" height="0.561" rx="0.28" transform="translate(115.572 61.677)" fill="#dae3e2"/>
    <line id="Línea_28" data-name="Línea 28" x2="19.333" transform="translate(178.337 61.957)" fill="#7a8482"/>
    <rect id="Rectángulo_98" data-name="Rectángulo 98" width="19.333" height="0.561" rx="0.28" transform="translate(178.337 61.677)" fill="#dae3e2"/>
  </g>
</svg>
