<svg xmlns="http://www.w3.org/2000/svg" width="215.302" height="35.381" viewBox="0 0 215.302 35.381">
  <defs>
    <style>
      .cls-1 {
        fill: #fff;
      }
    </style>
  </defs>
  <g id="Grupo_2" data-name="Grupo 2" transform="translate(-147.643 -6176.641)">
    <path id="Icon_awesome-facebook" data-name="Icon awesome-facebook" class="cls-1" d="M35.438,18A17.438,17.438,0,1,0,15.275,35.227V23.041h-4.43V18h4.43V14.158c0-4.37,2.6-6.784,6.586-6.784a26.836,26.836,0,0,1,3.9.34V12h-2.2a2.52,2.52,0,0,0-2.841,2.723V18h4.836l-.773,5.041H20.725V35.227A17.444,17.444,0,0,0,35.438,18Z" transform="translate(147.081 6176.438)"/>
    <path id="Icon_awesome-instagram" data-name="Icon awesome-instagram" class="cls-1" d="M17.693,10.857a9.071,9.071,0,1,0,9.071,9.071A9.057,9.057,0,0,0,17.693,10.857Zm0,14.969a5.9,5.9,0,1,1,5.9-5.9,5.908,5.908,0,0,1-5.9,5.9Zm11.558-15.34A2.116,2.116,0,1,1,27.136,8.37,2.111,2.111,0,0,1,29.252,10.486Zm6.008,2.147C35.125,9.8,34.478,7.289,32.4,5.22S27.823,2.5,24.988,2.362c-2.921-.166-11.677-.166-14.6,0-2.826.134-5.337.782-7.413,2.85S.261,9.791.119,12.626c-.166,2.921-.166,11.677,0,14.6.134,2.834.782,5.345,2.858,7.413s4.579,2.716,7.413,2.858c2.921.166,11.677.166,14.6,0,2.834-.134,5.345-.782,7.413-2.858s2.716-4.579,2.858-7.413c.166-2.921.166-11.669,0-14.59ZM31.486,30.358a5.971,5.971,0,0,1-3.363,3.363c-2.329.924-7.856.711-10.429.711s-8.108.205-10.429-.711A5.971,5.971,0,0,1,3.9,30.358C2.977,28.029,3.19,22.5,3.19,19.928S2.985,11.82,3.9,9.5A5.971,5.971,0,0,1,7.264,6.136c2.329-.924,7.856-.711,10.429-.711s8.108-.205,10.429.711A5.971,5.971,0,0,1,31.486,9.5c.924,2.329.711,7.856.711,10.429S32.41,28.037,31.486,30.358Z" transform="translate(206.069 6174.403)"/>
    <path id="Icon_awesome-twitter" data-name="Icon awesome-twitter" class="cls-1" d="M32.3,10.668c.023.32.023.64.023.959,0,9.754-7.424,20.992-20.992,20.992A20.85,20.85,0,0,1,0,29.307a15.263,15.263,0,0,0,1.782.091,14.776,14.776,0,0,0,9.16-3.152,7.391,7.391,0,0,1-6.9-5.117,9.3,9.3,0,0,0,1.393.114,7.8,7.8,0,0,0,1.942-.251,7.379,7.379,0,0,1-5.916-7.241V13.66A7.431,7.431,0,0,0,4.8,14.6,7.389,7.389,0,0,1,2.513,4.728a20.972,20.972,0,0,0,15.213,7.721,8.329,8.329,0,0,1-.183-1.69A7.385,7.385,0,0,1,30.312,5.711a14.526,14.526,0,0,0,4.683-1.782,7.358,7.358,0,0,1-3.244,4.066A14.791,14.791,0,0,0,36,6.853a15.86,15.86,0,0,1-3.7,3.815Z" transform="translate(264.999 6176.332)"/>
    <path id="Icon_awesome-youtube" data-name="Icon awesome-youtube" class="cls-1" d="M38.648,8.725a4.825,4.825,0,0,0-3.395-3.417c-2.995-.808-15-.808-15-.808s-12.008,0-15,.808A4.825,4.825,0,0,0,1.852,8.725c-.8,3.014-.8,9.3-.8,9.3s0,6.289.8,9.3a4.753,4.753,0,0,0,3.395,3.362c2.995.808,15,.808,15,.808s12.008,0,15-.808a4.753,4.753,0,0,0,3.395-3.362c.8-3.014.8-9.3.8-9.3s0-6.289-.8-9.3ZM16.323,23.737V12.318l10.036,5.71L16.323,23.737Z" transform="translate(323.495 6176.332)"/>
  </g>
</svg>
