<svg xmlns="http://www.w3.org/2000/svg" width="33.118" height="34.402" viewBox="0 0 33.118 34.402">
  <defs>
    <style>
      .cls-1 {
        fill: #e4e4e4;
      }
    </style>
  </defs>
  <path id="Icon_map-kayaking" data-name="Icon map-kayaking" class="cls-1" d="M29.841,22.19a4.6,4.6,0,0,0-2.011.467,4.63,4.63,0,0,1-3.912,0,4.609,4.609,0,0,0-2.011-.467,4.66,4.66,0,0,0-2.012.467,4.7,4.7,0,0,1-1.948.433,4.749,4.749,0,0,1-1.958-.433,4.567,4.567,0,0,0-4.022,0,4.622,4.622,0,0,1-3.908,0,4.566,4.566,0,0,0-2-.467,4.461,4.461,0,0,0-1.978.467,4.49,4.49,0,0,1-1.92.433v3.033a4.523,4.523,0,0,0,1.921-.434,4.5,4.5,0,0,1,3.989,0,4.818,4.818,0,0,0,1.637.4L7.276,28.6a1.947,1.947,0,0,0-2.47.287L2.021,31.769a2.113,2.113,0,0,0,0,2.909,1.939,1.939,0,0,0,2.807,0l2.785-2.884a2.11,2.11,0,0,0,.346-2.412l3.348-3.465a6.08,6.08,0,0,0,.662-.229,4.573,4.573,0,0,1,4.022,0,4.761,4.761,0,0,0,1.958.434,4.713,4.713,0,0,0,1.948-.434,4.667,4.667,0,0,1,2.012-.466,4.618,4.618,0,0,1,2.011.466,4.623,4.623,0,0,0,3.912,0,4.614,4.614,0,0,1,2.011-.466,4.712,4.712,0,0,1,2.027.466,4.707,4.707,0,0,0,1.971.434V23.09a4.713,4.713,0,0,1-1.971-.433,4.718,4.718,0,0,0-2.028-.467ZM31.19,7.361l2.784-2.885a2.1,2.1,0,0,0,0-2.91,1.928,1.928,0,0,0-2.808,0L28.382,4.451A2.1,2.1,0,0,0,28.115,7l-3.462,3.593-6.877-2.64a2.747,2.747,0,0,0-.583-.262,2.827,2.827,0,0,0-3.536,1.971l-2.113,7.362-.042.256H2.16v3.893a2.928,2.928,0,0,0,1.476-.335A5.543,5.543,0,0,1,8.5,20.831a3.615,3.615,0,0,0,1.526.342,3.54,3.54,0,0,0,1.508-.335,5.731,5.731,0,0,1,2.451-.564,5.6,5.6,0,0,1,2.439.557,3.584,3.584,0,0,0,3.043.007,5.7,5.7,0,0,1,2.446-.564,5.555,5.555,0,0,1,2.436.557,3.644,3.644,0,0,0,1.53.342,3.575,3.575,0,0,0,1.515-.335,5.712,5.712,0,0,1,2.453-.564,2.089,2.089,0,0,0,1.286-.346,14.921,14.921,0,0,0,2.27-1.279c.727-.462,1.3-1.369-.277-1.369H19.44L23.666,13.1l.536.212A1.312,1.312,0,0,0,25.89,12.5a1.4,1.4,0,0,0-.292-1.4l3.265-3.4a1.927,1.927,0,0,0,2.326-.351ZM18.24,17.28H17.4l1.7-5.9,3.518,1.36ZM18.217,4.257l-.363.732a1.374,1.374,0,0,1-1.286.771h-.853a2.905,2.905,0,0,0,2.339,1.175A2.863,2.863,0,0,0,20.88,4.144V4.32H18.343l-.127-.063Zm-1.649.783a.746.746,0,0,0,.671-.443l.355-.646c.134-.3.418-.351.75-.351h2.775a3.518,3.518,0,0,0-3.2-2.723,3.294,3.294,0,0,0-3.3,3.348c0,.3.032.815.111.815h1.839Z" transform="translate(-1.441 -0.877)"/>
</svg>
