<svg xmlns="http://www.w3.org/2000/svg" width="26.89" height="26.89" viewBox="0 0 26.89 26.89">
  <defs>
    <style>
      .cls-1 {
        fill: #fff;
      }
    </style>
  </defs>
  <path id="Icon_awesome-clock" data-name="Icon awesome-clock" class="cls-1" d="M14.008.563A13.445,13.445,0,1,0,27.452,14.008,13.443,13.443,0,0,0,14.008.563Zm3.1,18.98-4.782-3.475a.655.655,0,0,1-.266-.526V6.418a.652.652,0,0,1,.651-.651h2.6a.652.652,0,0,1,.651.651v7.465l3.443,2.5a.65.65,0,0,1,.141.911l-1.529,2.1A.655.655,0,0,1,17.1,19.543Z" transform="translate(-0.563 -0.563)"/>
</svg>
