<svg xmlns="http://www.w3.org/2000/svg" width="96.415" height="134.896" viewBox="0 0 96.415 134.896">
  <g id="Loto" transform="translate(0 0)">
    <path id="Trazado_1" data-name="Trazado 1" d="M0,546.088H1.84v-4.906H5.707v-1.564H1.84v-3.264H6.6V534.79H0Z" transform="translate(0 -425.704)" fill="#e4e4e4"/>
    <rect id="Rectángulo_85" data-name="Rectángulo 85" width="1.84" height="11.969" transform="translate(7.927 108.415)" fill="#e4e4e4"/>
    <path id="Trazado_2" data-name="Trazado 2" d="M318.33,716.083a5.042,5.042,0,0,0-4.63,0,4.171,4.171,0,0,0-1.644,1.632,4.832,4.832,0,0,0-.6,2.421,4.967,4.967,0,0,0,.583,2.436,4.133,4.133,0,0,0,1.62,1.632,4.663,4.663,0,0,0,2.293.571,4.823,4.823,0,0,0,2.331-.571,4.3,4.3,0,0,0,1.675-1.632,5.165,5.165,0,0,0,.016-4.869,4.179,4.179,0,0,0-1.644-1.62Zm-2.378,7.031a2.709,2.709,0,0,1-1.318-.328,2.357,2.357,0,0,1-.946-.987,3.5,3.5,0,0,1-.361-1.669,3.41,3.41,0,0,1,.367-1.652,2.388,2.388,0,0,1,.965-.989,2.9,2.9,0,0,1,2.676,0,2.463,2.463,0,0,1,.987.989,3.3,3.3,0,0,1,.383,1.65,3.247,3.247,0,0,1-.39,1.648,2.559,2.559,0,0,1-1.02,1A2.853,2.853,0,0,1,315.952,723.114Z" transform="translate(-300.197 -604.246)" fill="#e4e4e4"/>
    <path id="Trazado_3" data-name="Trazado 3" d="M366.045,715.869h0a2.922,2.922,0,0,0-.769.643v-.92H363.44v8.975h1.836V719.7c0-1.609.72-2.391,2.2-2.391h.581v-1.877h-.2A3.573,3.573,0,0,0,366.045,715.869Z" transform="translate(-341.578 -604.177)" fill="#e4e4e4"/>
    <path id="Trazado_4" data-name="Trazado 4" d="M417.433,705.624a3.761,3.761,0,0,0-1.02-.781,4.163,4.163,0,0,0-1.968-.483,4.309,4.309,0,0,0-2.2.575,4.079,4.079,0,0,0-1.546,1.617,5,5,0,0,0-.559,2.393,5.1,5.1,0,0,0,.559,2.409,4.124,4.124,0,0,0,3.733,2.244,3.968,3.968,0,0,0,2.054-.52,3.76,3.76,0,0,0,.951-.785v1.165h1.854V701.5h-1.856Zm-.367,1.756a3.263,3.263,0,0,1,.367,1.589,3.353,3.353,0,0,1-.367,1.6,2.576,2.576,0,0,1-.985,1.02,2.714,2.714,0,0,1-1.369.357,2.675,2.675,0,0,1-1.36-.349,2.592,2.592,0,0,1-.975-1.02,3.362,3.362,0,0,1-.369-1.616,3.294,3.294,0,0,1,.367-1.589,2.545,2.545,0,0,1,.977-1.02,2.7,2.7,0,0,1,1.36-.349,2.733,2.733,0,0,1,1.369.355A2.577,2.577,0,0,1,417.066,707.381Z" transform="translate(-378.748 -593.085)" fill="#e4e4e4"/>
    <path id="Trazado_5" data-name="Trazado 5" d="M468.991,716.074a4.577,4.577,0,0,0-2.27-.557,4.712,4.712,0,0,0-2.325.565,3.964,3.964,0,0,0-1.581,1.62,5.085,5.085,0,0,0-.559,2.425,5.018,5.018,0,0,0,.575,2.433,4.081,4.081,0,0,0,1.6,1.632,4.591,4.591,0,0,0,2.295.573,4.409,4.409,0,0,0,2.7-.816,3.9,3.9,0,0,0,1.458-2.115l.073-.259H469l-.047.137a2.081,2.081,0,0,1-.8,1.048,2.476,2.476,0,0,1-1.428.394,2.572,2.572,0,0,1-1.791-.659,2.493,2.493,0,0,1-.785-1.632h6.843l.018-.184a8.371,8.371,0,0,0,.049-.879,4.528,4.528,0,0,0-.536-2.2,3.921,3.921,0,0,0-1.534-1.526Zm-2.333,1.055a2.884,2.884,0,0,1,1.287.284,2.166,2.166,0,0,1,.9.816,2.354,2.354,0,0,1,.324,1.087h-5a2.521,2.521,0,0,1,.779-1.55A2.448,2.448,0,0,1,466.658,717.128Z" transform="translate(-420.236 -604.242)" fill="#e4e4e4"/>
    <path id="Trazado_6" data-name="Trazado 6" d="M533.552,705.1l-4.112,11.235h1.95l.881-2.421h4.488l.879,2.421h1.944L535.488,705.1Zm2.652,7.249h-3.386l1.691-4.691Z" transform="translate(-473.717 -595.951)" fill="#e4e4e4"/>
    <path id="Trazado_7" data-name="Trazado 7" d="M589.9,716.785a3.7,3.7,0,0,0-.944-.757h0a4.068,4.068,0,0,0-2.06-.512,4.282,4.282,0,0,0-2.187.575,4.058,4.058,0,0,0-1.546,1.617,5,5,0,0,0-.561,2.393,5.129,5.129,0,0,0,.559,2.409,4.13,4.13,0,0,0,3.735,2.244,3.932,3.932,0,0,0,2.054-.528,3.889,3.889,0,0,0,.951-.785V724.6a2.586,2.586,0,0,1-.687,1.917,2.409,2.409,0,0,1-1.783.677,3.032,3.032,0,0,1-1.667-.445,2.02,2.02,0,0,1-.889-1.146l-.045-.145h-1.8l.035.235A3.327,3.327,0,0,0,584.484,728a5.021,5.021,0,0,0,2.948.834,4.661,4.661,0,0,0,2.276-.543,3.8,3.8,0,0,0,1.52-1.509,4.472,4.472,0,0,0,.528-2.185v-8.94H589.9Zm-.369,1.752a3.262,3.262,0,0,1,.369,1.589,3.317,3.317,0,0,1-.369,1.6,2.564,2.564,0,0,1-.983,1.02,2.713,2.713,0,0,1-1.369.357,2.667,2.667,0,0,1-1.36-.357,2.577,2.577,0,0,1-.977-1.02,3.349,3.349,0,0,1-.369-1.613,3.264,3.264,0,0,1,.369-1.589,2.542,2.542,0,0,1,.975-1.02,2.825,2.825,0,0,1,2.731,0A2.587,2.587,0,0,1,589.526,718.537Z" transform="translate(-516.03 -604.242)" fill="#e4e4e4"/>
    <path id="Trazado_8" data-name="Trazado 8" d="M643.276,721.1a2.672,2.672,0,0,1-.612,1.907,2.168,2.168,0,0,1-1.66.641,2.1,2.1,0,0,1-1.614-.612,2.537,2.537,0,0,1-.588-1.805v-5.036h-1.809v5.22a4.3,4.3,0,0,0,.49,2.115,3.224,3.224,0,0,0,1.35,1.324,4.1,4.1,0,0,0,1.9.437,3.762,3.762,0,0,0,1.705-.39,3.142,3.142,0,0,0,.844-.612v.877h1.836V716.19h-1.836Z" transform="translate(-559.331 -604.779)" fill="#e4e4e4"/>
    <path id="Trazado_9" data-name="Trazado 9" d="M691.355,715.656v1.126a3.764,3.764,0,0,0-.936-.755,4.056,4.056,0,0,0-2.068-.512,4.283,4.283,0,0,0-2.187.575,4.06,4.06,0,0,0-1.546,1.617,5,5,0,0,0-.561,2.393,5.13,5.13,0,0,0,.559,2.409,4.176,4.176,0,0,0,1.538,1.656,4.129,4.129,0,0,0,2.181.592,4.02,4.02,0,0,0,2.062-.52,3.838,3.838,0,0,0,.959-.779v1.159h1.854v-8.975Zm0,4.469a3.316,3.316,0,0,1-.375,1.607,2.564,2.564,0,0,1-.983,1.02,2.713,2.713,0,0,1-1.369.357,2.667,2.667,0,0,1-1.36-.357,2.575,2.575,0,0,1-.977-1.02,3.345,3.345,0,0,1-.369-1.613,3.263,3.263,0,0,1,.369-1.589,2.541,2.541,0,0,1,.975-1.02,2.825,2.825,0,0,1,2.731,0,2.587,2.587,0,0,1,.983,1.02A3.264,3.264,0,0,1,691.355,720.126Z" transform="translate(-596.795 -604.241)" fill="#e4e4e4"/>
    <path id="Trazado_10" data-name="Trazado 10" d="M177.367,630.89v-7.68h-.677V626.7h-4.322V623.21h-.677v7.68h.677v-3.641h4.322v3.641Z" transform="translate(-136.669 -496.088)" fill="#e4e4e4"/>
    <path id="Trazado_11" data-name="Trazado 11" d="M467.759,806.887a2.722,2.722,0,0,0,1.083-1.077,3.264,3.264,0,0,0,.394-1.622,3.314,3.314,0,0,0-.388-1.632,2.73,2.73,0,0,0-1.071-1.071,3.125,3.125,0,0,0-1.53-.377,3.078,3.078,0,0,0-1.522.377,2.768,2.768,0,0,0-1.073,1.073,3.578,3.578,0,0,0,0,3.264,2.719,2.719,0,0,0,1.061,1.071h0a3.061,3.061,0,0,0,1.516.377A3.149,3.149,0,0,0,467.759,806.887Zm-3.5-1.314a3.2,3.2,0,0,1,0-2.756,2.071,2.071,0,0,1,.838-.843,2.448,2.448,0,0,1,2.274,0,2.108,2.108,0,0,1,.844.843,2.773,2.773,0,0,1,.318,1.379,2.718,2.718,0,0,1-.324,1.377,2.124,2.124,0,0,1-.849.844,2.462,2.462,0,0,1-2.27,0A2.075,2.075,0,0,1,464.261,805.574Z" transform="translate(-421.036 -672.376)" fill="#e4e4e4"/>
    <path id="Trazado_12" data-name="Trazado 12" d="M498.224,801.2a1.669,1.669,0,0,0,1.189.371h.783v-.567h-.661a1.071,1.071,0,0,1-.781-.227,1.11,1.11,0,0,1-.226-.8v-3.816H500.2v-.555h-1.669V794.08h-.689v1.526H497v.555h.847v3.818A1.643,1.643,0,0,0,498.224,801.2Z" transform="translate(-447.894 -666.781)" fill="#e4e4e4"/>
    <path id="Trazado_13" data-name="Trazado 13" d="M523.481,803.883a2.875,2.875,0,0,0-.345-1.4,2.57,2.57,0,0,0-.983-1,2.922,2.922,0,0,0-1.493-.371,3.083,3.083,0,0,0-1.522.371,2.6,2.6,0,0,0-1.038,1.071,3.469,3.469,0,0,0-.373,1.632,3.373,3.373,0,0,0,.379,1.632,2.65,2.65,0,0,0,1.042,1.071,3.024,3.024,0,0,0,1.512.377,2.882,2.882,0,0,0,1.8-.551,2.528,2.528,0,0,0,.916-1.36h-.718a1.78,1.78,0,0,1-.7.981,2.206,2.206,0,0,1-1.3.375,2.38,2.38,0,0,1-1.091-.255,2.027,2.027,0,0,1-.816-.759,2.51,2.51,0,0,1-.341-1.206v-.053h5.053C523.475,804.307,523.481,804.12,523.481,803.883Zm-.69.029h-4.379v-.055a2.279,2.279,0,0,1,.7-1.6,2.178,2.178,0,0,1,1.516-.571,2.432,2.432,0,0,1,1.091.251,1.9,1.9,0,0,1,.794.742,2.245,2.245,0,0,1,.281,1.185Z" transform="translate(-464.392 -672.382)" fill="#e4e4e4"/>
    <rect id="Rectángulo_86" data-name="Rectángulo 86" width="0.677" height="8.137" transform="translate(60.616 126.665)" fill="#e4e4e4"/>
    <path id="Trazado_14" data-name="Trazado 14" d="M391.308,277.23c0,.551-.014,1.1-.039,1.644a33.49,33.49,0,0,1-.587,4.867c-.1.516-.2,1.02-.335,1.538q-.353,1.428-.816,2.784c-3.3,9.791-10.454,16.21-14.295,19.092a53.625,53.625,0,0,0,9.587-20.863,49.128,49.128,0,0,0,.963-6.748,38.314,38.314,0,0,0-.742-11.753l-.1-.383-.408.022a21.867,21.867,0,0,0-9.442,2.968,35.311,35.311,0,0,0-4.657,3.147c-.3.239-.612.479-.9.726a52.532,52.532,0,0,0-4.375,4.108,75.97,75.97,0,0,0-7.082,8.645q-.549.771-1.042,1.5c-.341-.5-.689-1.006-1.044-1.5a76.738,76.738,0,0,0-7.231-8.806,52.481,52.481,0,0,0-4.367-4.063c-.3-.255-.612-.5-.916-.736a35.246,35.246,0,0,0-4.657-3.111,21.8,21.8,0,0,0-9.283-2.878l-.4-.022-.1.383a38.5,38.5,0,0,0-.742,11.792,51.14,51.14,0,0,0,.967,6.743,53.558,53.558,0,0,0,9.587,20.824c-3.843-2.884-11-9.312-14.3-19.125q-.449-1.328-.8-2.739c-.131-.528-.245-1.059-.349-1.6a33.85,33.85,0,0,1-.559-4.818,41.13,41.13,0,0,1,3.035-16.914h.01a35.436,35.436,0,0,1,14.7,3.521,32.1,32.1,0,0,1,4.037,2.338c.592.408,1.122.793,1.632,1.187a31.312,31.312,0,0,1,3.559,3.251,34.57,34.57,0,0,1,6.8,10.939l.455,1.146.453-1.146a34.308,34.308,0,0,1,6.664-10.793,31.248,31.248,0,0,1,3.545-3.3c.52-.408,1.063-.816,1.613-1.191a32.716,32.716,0,0,1,4.033-2.368,35.5,35.5,0,0,1,14.846-3.58h0A41.774,41.774,0,0,1,391.308,277.23Z" transform="translate(-309.235 -243.202)" fill="#e4e4e4"/>
    <path id="Trazado_15" data-name="Trazado 15" d="M445.424,170.012,445.4,170l-.029.012c-2.2.887-12.634,6.06-11.376,23.6,1.25-4.206,4.42-12.153,11.18-15.67l.224-.118.226.118c6.758,3.517,9.928,11.464,11.178,15.67C458.06,176.072,447.624,170.9,445.424,170.012Z" transform="translate(-397.654 -170)" fill="#e4e4e4"/>
    <path id="Trazado_16" data-name="Trazado 16" d="M352.385,372.27a33.718,33.718,0,0,0-10.444-3.761q-.155.832-.359,1.652-.373,1.548-.869,2.994a18.951,18.951,0,0,1,6.491,2.04l.294.157-.1.322a37.025,37.025,0,0,1-5.883,10.69,48.764,48.764,0,0,1-17.338,14.115,55.066,55.066,0,0,1-9.9,2.309q-1.042.151-2.109.257c-.706.073-1.418.137-2.134.18-1.091.077-2.195.126-3.309.139h-1.972c-1.122-.024-2.232-.073-3.333-.153-.712-.057-1.428-.118-2.125-.2s-1.416-.169-2.109-.269A54.493,54.493,0,0,1,286,399.91a48.548,48.548,0,0,1-16.235-13.552,36.978,36.978,0,0,1-5.885-10.69l-.094-.322.29-.157a19.068,19.068,0,0,1,6.788-2.072q-.477-1.428-.855-2.954c-.145-.563-.265-1.134-.375-1.711a33.1,33.1,0,0,0-11.229,4.108.013.013,0,0,0-.012.01c.012.063.022.129.039.194a36.06,36.06,0,0,0,35.715,31.9H302.1c.543.033,1.093.055,1.644.071.71.022,1.428.035,2.136.035.612,0,1.2,0,1.8-.029.657-.012,1.312-.039,1.958-.077h6.96a36.05,36.05,0,0,0,32.057-19.717,40.074,40.074,0,0,0,4.233-12.371C352.771,372.5,352.6,372.4,352.385,372.27Z" transform="translate(-257.956 -327.97)" fill="#e4e4e4"/>
    <rect id="Rectángulo_87" data-name="Rectángulo 87" width="10.072" height="10.072" rx="5.036" transform="translate(42.911 78.538)" fill="#e4e4e4"/>
    <path id="Trazado_17" data-name="Trazado 17" d="M391.469,551.87a5.959,5.959,0,0,0-3.323-2.244c-.063-.016-.129-.031-.2-.043a5.41,5.41,0,0,0-.961-.12,6.444,6.444,0,0,0-4.3,1.513c-.076.059-.149.12-.22.186a8.379,8.379,0,0,0-2.262,3.182,8.659,8.659,0,0,0-.385,1.179.644.644,0,0,1-.02.106,1.977,1.977,0,0,0-.1.612,1.938,1.938,0,0,0,3.845.333c.012-.037.024-.073.035-.112a4.775,4.775,0,0,1,.408-1.093h0a2.707,2.707,0,0,1,.163-.286A4.285,4.285,0,0,1,385.1,554a2.6,2.6,0,0,1,1.73-.665,1.563,1.563,0,0,1,.273.037h0a2.118,2.118,0,0,1,1.236.816,7.285,7.285,0,0,1,.585.918,5.538,5.538,0,0,1,.492,4,6.784,6.784,0,0,1-1.7,3.1A7.469,7.469,0,0,1,386,563.567a8.374,8.374,0,0,1-6.915,1.034c-2.776-.781-5.248-3.741-6.9-6.448h0c-.016-.039-.2-.449-.477-1.02l-.051-.184c-.171-.369-.373-.791-.587-1.224l-.082-.167c-.249-.5-.508-1.02-.751-1.462-.051-.094-.1-.184-.149-.271h0c-.163-.29-.314-.545-.447-.74-.045-.069-.284-.408-.383-.553l-.049-.069h0q-.308-.392-.655-.753a10.1,10.1,0,0,0-.757-.712l-.149-.124c-.514.067-1.061.133-1.654.2l-.628.061a5.191,5.191,0,0,1,.455.328,8.912,8.912,0,0,1,3.525,7.115v1.907a9,9,0,0,1-8.989,8.989h-1.909a9,9,0,0,1-8.989-8.989v-1.907a8.934,8.934,0,0,1,3.574-7.164c.145-.11.3-.216.449-.318l-.612-.061c-.539-.059-1.1-.129-1.662-.2l-.155.126c-.265.224-.522.463-.763.71a9.625,9.625,0,0,0-.838.985,2.308,2.308,0,0,0-.153.2,9.786,9.786,0,0,0-.875,1.489l-.471.987-.082.167c-.249.506-.483,1-.671,1.406-.273.579-.461.989-.477,1.02h0c-1.654,2.707-4.126,5.666-6.9,6.448a8.374,8.374,0,0,1-6.915-1.034,7.1,7.1,0,0,1-3.413-4.457,5.692,5.692,0,0,1,1.077-4.92,2.117,2.117,0,0,1,1.236-.816h0a1.581,1.581,0,0,1,.273-.037,2.64,2.64,0,0,1,1.73.665,4.286,4.286,0,0,1,.951,1.081c.057.092.112.188.163.286h0a4.774,4.774,0,0,1,.418,1.093,1.052,1.052,0,0,0,.035.112,1.938,1.938,0,0,0,3.851-.318,1.974,1.974,0,0,0-.1-.612.486.486,0,0,0-.02-.106,8.489,8.489,0,0,0-2.652-4.361c-.071-.065-.145-.127-.22-.186a6.444,6.444,0,0,0-4.3-1.514,5.61,5.61,0,0,0-1.155.163,5.958,5.958,0,0,0-3.323,2.244,9.574,9.574,0,0,0-1.744,8.118,10.326,10.326,0,0,0,.72,2.066h0a11.193,11.193,0,0,0,4.528,4.871,13.342,13.342,0,0,0,6.644,2.019,9.32,9.32,0,0,0,3.763-.785,10.5,10.5,0,0,0,2.713-1.75.148.148,0,0,1,.018-.018,15.607,15.607,0,0,0,3.06-3.841l.536,2.331a10.2,10.2,0,0,0,9.852,7.843h3.708a10.132,10.132,0,0,0,9.766-7.494l.687-2.564.169.261c.241.408.5.816.785,1.21a14.3,14.3,0,0,0,2.17,2.448l.018.018a10.506,10.506,0,0,0,2.713,1.75,9.711,9.711,0,0,0,1.373.479h0a9.353,9.353,0,0,0,2.389.306,10.378,10.378,0,0,0,1.632-.133,14.658,14.658,0,0,0,5.014-1.887,11.341,11.341,0,0,0,3.1-2.617h0a10.785,10.785,0,0,0,1.428-2.244h0a10.325,10.325,0,0,0,.718-2.056A9.6,9.6,0,0,0,391.469,551.87Z" transform="translate(-311.328 -471.89)" fill="#e4e4e4"/>
    <line id="Línea_25" data-name="Línea 25" x2="14.075" transform="translate(18.509 130.75)" fill="#7a8482"/>
    <rect id="Rectángulo_88" data-name="Rectángulo 88" width="14.075" height="0.408" rx="0.204" transform="translate(18.509 130.546)" fill="#e4e4e4"/>
    <line id="Línea_26" data-name="Línea 26" x2="14.075" transform="translate(64.2 130.75)" fill="#7a8482"/>
    <rect id="Rectángulo_89" data-name="Rectángulo 89" width="14.075" height="0.408" rx="0.204" transform="translate(64.2 130.546)" fill="#e4e4e4"/>
  </g>
</svg>
